<svg width="32" height="44" viewBox="0 0 32 44" fill="none" xmlns="http://www.w3.org/2000/svg">
<g clip-path="url(#clip0_1414_2)">
<path d="M0.706784 21.6505C1.02715 21.7426 1.35306 21.8142 1.68253 21.8649C1.04318 24.9246 1.63373 28.1129 3.32649 30.7405C3.40187 30.8547 3.5079 30.9452 3.63242 31.0018C3.75694 31.0584 3.8949 31.0788 4.03046 31.0605C4.48798 30.9951 4.94099 30.9013 5.38685 30.7796C6.0108 33.48 7.43579 35.9291 9.47516 37.8059C9.59419 37.9095 9.74361 37.9716 9.90097 37.983C10.0583 37.9944 10.2151 37.9544 10.3478 37.8691C10.5141 37.7636 10.6761 37.6422 10.8407 37.5234C11.7139 40.001 13.3936 42.1139 15.6105 43.5233C15.7262 43.5962 15.8602 43.6349 15.997 43.6349C16.1338 43.6349 16.2678 43.5962 16.3835 43.5233C17.9908 42.5037 19.3232 41.1053 20.264 39.4507C20.3599 39.2833 20.3853 39.0847 20.3348 38.8985C20.2842 38.7123 20.1617 38.5538 19.9943 38.458C19.8269 38.3621 19.6282 38.3366 19.4421 38.3872C19.2559 38.4378 19.0974 38.5602 19.0015 38.7277C18.2567 40.0375 17.2316 41.1665 15.9995 42.0339C14.0987 40.6873 12.7059 38.7406 12.045 36.5069C13.2986 35.3036 14.3231 33.8826 15.0686 32.313C15.1166 32.2264 15.1464 32.1308 15.1561 32.0322C15.1659 31.9336 15.1554 31.8341 15.1252 31.7397C15.0951 31.6454 15.0461 31.5581 14.981 31.4834C14.916 31.4087 14.8364 31.348 14.7471 31.3051C14.6578 31.2623 14.5607 31.2381 14.4617 31.2341C14.3627 31.2301 14.264 31.2464 14.1715 31.2819C14.079 31.3175 13.9948 31.3715 13.924 31.4408C13.8532 31.5101 13.7972 31.5931 13.7596 31.6847C13.0357 33.2289 12.0096 34.6123 10.7418 35.7531C10.5058 35.96 10.2664 36.1528 10.0262 36.3282C8.40862 34.6635 7.28305 32.5838 6.774 30.3192C8.8159 29.4833 10.5932 28.1098 11.917 26.3447C12.7176 27.6734 13.7756 28.8288 15.0287 29.7432C15.2194 29.88 15.4133 30.0114 15.6105 30.1371C15.6838 30.1879 15.7671 30.2225 15.8548 30.2387C15.9425 30.2549 16.0326 30.2523 16.1192 30.2311C16.9043 32.7625 18.35 35.0389 20.3072 36.826C20.7385 37.2059 21.1974 37.5532 21.6802 37.8649C21.8131 37.9502 21.9701 37.9899 22.1276 37.9781C22.285 37.9662 22.4343 37.9035 22.5529 37.7993C24.5817 35.9213 25.9977 33.4757 26.6163 30.7813C27.0606 30.902 27.5119 30.995 27.9677 31.0597C28.1033 31.0778 28.2411 31.0573 28.3656 31.0007C28.4901 30.9442 28.5962 30.8537 28.6717 30.7397C30.3637 28.1118 30.9539 24.9236 30.3148 21.8641C30.6448 21.8137 30.9713 21.7424 31.2922 21.6505C31.4145 21.6139 31.525 21.5457 31.6126 21.4527C31.7001 21.3598 31.7616 21.2454 31.7909 21.1211C32.755 17.0486 30.2458 11.9787 27.3967 9.29084C25.9348 8.00272 24.2196 7.03482 22.3612 6.44938C20.5028 5.86394 18.5424 5.67392 16.6062 5.89153C16.5464 5.61976 16.4799 5.33967 16.44 5.08534C16.8995 5.14031 17.3654 5.0923 17.804 4.9448C18.2426 4.79731 18.6429 4.55403 18.9758 4.23261C19.4649 3.72862 19.7388 3.05411 19.7396 2.35177C19.7544 2.04458 19.706 1.73762 19.5973 1.44993C19.4885 1.16225 19.3218 0.899985 19.1075 0.679422C18.8932 0.458859 18.6358 0.284706 18.3514 0.167774C18.0669 0.0508424 17.7615 -0.00637192 17.454 -0.000317053C17.0873 -0.0129761 16.7228 0.0608574 16.39 0.215209C16.0572 0.369561 15.7654 0.600095 15.5382 0.888157C15.0642 1.58493 14.8203 2.41271 14.8409 3.2552C14.3181 3.07484 13.8665 2.73241 13.5517 2.27771C13.2369 1.82301 13.0754 1.27974 13.0906 0.726918C13.0906 0.534043 13.0139 0.349068 12.8776 0.212685C12.7412 0.0763021 12.5562 -0.000317053 12.3633 -0.000317053C12.1704 -0.000317053 11.9855 0.0763021 11.8491 0.212685C11.7127 0.349068 11.6361 0.534043 11.6361 0.726918C11.6361 3.18206 13.3208 4.35229 14.9273 4.82354C14.9731 5.17427 15.0329 5.52085 15.1002 5.85912C13.2093 5.68868 11.3035 5.90505 9.499 6.49504C7.69445 7.08504 6.02892 8.03629 4.60393 9.29084C1.75483 11.9812 -0.754335 17.0452 0.208939 21.1211C0.23843 21.2453 0.300013 21.3595 0.387527 21.4524C0.475041 21.5454 0.585417 21.6137 0.707615 21.6505H0.706784ZM5.6819 29.1838C5.22963 29.3377 4.76689 29.4588 4.29725 29.5462C2.97822 27.2616 2.56616 24.5647 3.14281 21.9904C3.19767 21.9904 3.2492 21.9971 3.30405 21.9971C5.6815 21.9456 8.01231 21.3273 10.1027 20.1936C10.1477 21.8131 10.5062 23.4087 11.1582 24.8919C9.86001 26.8902 7.93493 28.4007 5.68523 29.1863L5.6819 29.1838ZM21.9986 36.3274C21.7526 36.1473 21.5071 35.95 21.2622 35.7356C19.4049 34.0271 18.061 31.8345 17.3817 29.4041C18.4536 28.5501 19.3673 27.5146 20.0812 26.3447C21.4065 28.1132 23.1877 29.4882 25.2341 30.3225C24.7294 32.5836 23.6103 34.6615 22.0002 36.3274H21.9986ZM16.686 1.7866C16.7758 1.67099 16.8934 1.57991 17.0278 1.5218C17.1622 1.46368 17.309 1.44042 17.4548 1.45415C17.57 1.45228 17.6843 1.47467 17.7903 1.51987C17.8962 1.56506 17.9915 1.63204 18.0699 1.71647C18.1483 1.80089 18.208 1.90086 18.2452 2.00988C18.2825 2.11891 18.2963 2.23454 18.2859 2.34928C18.286 2.6706 18.1611 2.97936 17.9377 3.21032C17.7748 3.35795 17.5841 3.47163 17.3767 3.54469C17.1694 3.61776 16.9495 3.64875 16.7301 3.63586C16.5842 3.63477 16.4385 3.62561 16.2937 3.60843C16.2277 2.97248 16.366 2.33204 16.6885 1.77995L16.686 1.7866ZM5.60045 10.3472C6.98734 9.13576 8.62538 8.2466 10.3968 7.74363C12.1683 7.24066 14.0292 7.13637 15.8457 7.43826C15.8902 7.44241 15.935 7.44241 15.9796 7.43826C16.0347 7.44511 16.0906 7.44511 16.1458 7.43826C17.962 7.13676 19.8224 7.24124 21.5934 7.7442C23.3644 8.24716 25.002 9.13611 26.3886 10.3472C28.882 12.6943 31.003 16.9962 30.4611 20.3623C30.1049 20.4382 29.7439 20.4895 29.3806 20.516C26.6056 20.62 23.8681 19.8486 21.5556 18.3111C21.0053 17.956 20.4874 17.553 20.008 17.1067C18.5669 15.735 17.431 14.0749 16.6744 12.2347C16.2956 11.3232 16.0485 10.3625 15.9405 9.38143C15.9212 9.18944 15.8264 9.01297 15.677 8.89085C15.5276 8.76873 15.3358 8.71096 15.1439 8.73024C14.9519 8.74953 14.7754 8.8443 14.6533 8.9937C14.5312 9.1431 14.4734 9.33489 14.4927 9.52688C14.6141 10.6454 14.894 11.741 15.3238 12.7807C16.1611 14.8127 17.417 16.6456 19.0098 18.1598C19.551 18.6642 20.135 19.1205 20.7552 19.5237C23.1188 21.0704 25.8677 21.9254 28.6916 21.9921C28.7456 21.9921 28.798 21.9863 28.8529 21.9855C29.4312 24.5613 29.019 27.2603 27.6984 29.5462C27.2295 29.459 26.7675 29.3376 26.3163 29.183C24.0662 28.3991 22.1404 26.8896 20.8416 24.8919C21.2599 23.9462 21.5598 22.9524 21.7343 21.9331C21.7666 21.7429 21.722 21.5476 21.6103 21.3903C21.4986 21.2329 21.329 21.1264 21.1388 21.0941C20.9485 21.0618 20.7533 21.1064 20.5959 21.2181C20.4386 21.3297 20.332 21.4993 20.2997 21.6896C20.1295 22.7169 19.815 23.7149 19.3656 24.6542C18.6263 26.2053 17.5123 27.5478 16.1242 28.5605L15.9987 28.6519L15.8782 28.5688C14.4888 27.5543 13.3747 26.209 12.6368 24.655C11.9072 23.1387 11.5315 21.4765 11.538 19.7938C11.538 19.6276 11.5497 19.4671 11.5571 19.3051C12.0635 18.9614 12.5433 18.5803 12.9925 18.1648C13.6296 17.5602 14.2135 16.902 14.7379 16.1975C14.8536 16.0432 14.9033 15.8492 14.876 15.6583C14.8487 15.4674 14.7467 15.2951 14.5924 15.1794C14.4381 15.0636 14.2442 15.014 14.0532 15.0412C13.8623 15.0685 13.69 15.1705 13.5743 15.3248C13.1002 15.9629 12.5718 16.5588 11.9951 17.1059C11.516 17.5518 10.9984 17.9545 10.4484 18.3094C8.13453 19.8482 5.39531 20.6205 2.61837 20.5169C2.25514 20.4903 1.89414 20.4389 1.53791 20.3631C0.996847 16.9962 3.11705 12.6951 5.60045 10.3472Z" fill="#7A570F"/>
</g>
<defs>
<clipPath id="clip0_1414_2">
<rect width="32" height="43.6349" fill="white"/>
</clipPath>
</defs>
</svg>
