<svg width="230" height="179" viewBox="0 0 230 179" fill="none" xmlns="http://www.w3.org/2000/svg">
<g clip-path="url(#clip0_1409_217)">
<path d="M66.6151 20.1865C65.2775 20.6912 63.394 21.6822 62.566 21.1041C65.7416 20.0306 69.0537 17.7458 72.111 17.3237C71.0828 18.6267 68.3895 19.5259 66.6151 20.1865Z" fill="#7A570F"/>
<path d="M41.4832 44.6949C38.6897 47.6036 34.9591 49.8057 31.8744 52.3933C29.5633 54.3385 27.707 56.5315 25.3594 58.4768C24.6133 59.0915 23.7216 60.055 22.6297 59.8072C28.4076 54.4762 33.2848 48.7964 41.4558 44.3462C41.5377 44.3462 41.6105 44.3462 41.6469 44.493C41.6833 44.6398 41.6015 44.649 41.4832 44.6949Z" fill="#7A570F"/>
<path d="M28.2439 57.6876C31.7026 54.1505 35.5701 51.0452 39.7634 48.4385C39.8102 48.4934 39.8359 48.5634 39.8359 48.6358C39.8359 48.7082 39.8102 48.7781 39.7634 48.833C37.7343 51.806 33.4486 54.0082 30.4914 56.7426C29.4631 57.6601 28.4987 58.9263 27.0974 58.9906C26.8244 58.3391 27.7525 58.0914 28.2439 57.6876Z" fill="#7A570F"/>
<path d="M33.6215 56.0546C35.4413 54.4488 36.9154 52.5403 39.1902 51.2832C39.2903 51.2832 39.3449 51.2832 39.4359 51.2832C39.4996 51.4117 39.627 51.3566 39.6725 51.5309C38.2803 53.9166 34.7134 55.5316 32.575 57.6603C32.3385 56.9355 33.2029 56.4308 33.6215 56.0546Z" fill="#7A570F"/>
<path d="M120.464 12.0935C123.624 12.1427 126.722 12.9813 129.481 14.5343C127.086 14.4257 124.719 13.9778 122.448 13.2038C121.783 12.9744 120.773 12.8459 120.464 12.0935Z" fill="#7A570F"/>
<path d="M63.6397 40.5198C65.2047 40.0152 67.6706 38.9049 69.2994 38.9875C67.525 40.107 65.1137 41.0245 63.6397 40.5198Z" fill="#7A570F"/>
<path d="M70.091 41.6486C68.9081 41.8596 67.525 42.2634 66.7334 41.6945C69.0628 41.0797 72.3567 39.7217 74.6952 39.8593C73.32 40.8099 71.7432 41.4227 70.091 41.6486Z" fill="#7A570F"/>
<path d="M96.4513 29.8303C97.9135 30.8114 99.4327 31.7031 101.001 32.5004C101.748 32.9828 102.523 33.4209 103.321 33.8126C105.25 34.6567 107.407 34.877 109.072 36.0148C104.022 36.1707 99.8544 33.7759 96.1784 29.9771L96.4513 29.8303Z" fill="#7A570F"/>
<path d="M75.2866 42.6581C73.3576 43.2637 71.5741 43.4656 70.1274 42.7223C71.5559 42.5847 73.7852 42.2085 75.2866 42.6581Z" fill="#7A570F"/>
<path d="M100.51 28.2244C100.51 28.1327 100.51 28.0684 100.664 28.0317C101.812 28.2793 102.988 28.3627 104.158 28.2795C105.25 28.2795 106.542 27.9858 107.316 28.8208C105.036 29.2695 102.678 29.0629 100.51 28.2244Z" fill="#7A570F"/>
<path d="M102.029 30.8946C100.91 30.5918 99.3903 30.7111 98.7352 29.8119L99.0355 29.6743C101.137 30.3258 103.722 29.6743 105.532 31.1516C104.459 31.8306 103.176 31.1974 102.029 30.8946Z" fill="#7A570F"/>
<path d="M23.8762 76.1585C21.747 79.6085 18.6078 83.4991 16.2694 86.7931C15.9054 87.307 15.6961 88.0869 15.3594 88.0961C18.0164 83.9119 20.2912 79.5902 23.9673 75.7639C24.0011 75.8298 24.0106 75.9058 23.9939 75.9781C23.9772 76.0505 23.9355 76.1144 23.8762 76.1585Z" fill="#7A570F"/>
<path d="M46.0054 73.6626C44.64 74.4251 43.2159 75.0756 41.747 75.6078C41.3922 75.7088 40.8371 75.8922 40.5733 75.4426C44.3494 73.6075 49.3266 70.2492 53.6215 69.1206C51.2486 70.901 48.6957 72.4234 46.0054 73.6626Z" fill="#7A570F"/>
<path d="M20.9099 85.8389C19.7179 88.3386 18.3144 90.7301 16.7152 92.9868C16.1783 93.6933 15.6051 94.5834 14.8317 94.877C16.509 91.5241 18.5147 88.3487 20.8189 85.3984C20.9009 85.5294 20.9333 85.6858 20.9099 85.8389Z" fill="#7A570F"/>
<path d="M62.2293 68.1206C61.4811 69.1791 60.4623 70.0132 59.2812 70.5338C54.36 73.1376 49.1736 75.1958 43.8126 76.6724C43.3121 76.81 42.3567 77.3789 41.9927 76.6724L42.1838 76.5807C48.4531 74.9841 55.7598 70.3136 62.2293 68.1206Z" fill="#7A570F"/>
<path d="M45.596 78.3699C49.3812 77.4982 53.5578 74.6997 57.1428 74.2317C54.9317 76.2503 51.2375 77.59 48.6624 78.2231C47.4704 78.5076 46.242 79.1407 45.2957 78.7553C45.4231 78.6636 45.3867 78.5167 45.4959 78.4158L45.596 78.3699Z" fill="#7A570F"/>
<path d="M103.995 55.2654C101.223 56.343 98.3839 57.235 95.4959 57.9356C94.6861 58.1191 93.6761 58.587 92.9117 58.0915L93.1028 57.9998L93.2029 57.9447C95.395 57.4618 97.5508 56.8241 99.6542 56.0362C101.729 55.348 104.004 55.1186 105.86 54.3662C108.753 53.21 111.419 51.5125 113.64 51.9346C111.456 54.1368 107.862 54.3845 105.168 54.9443C104.77 55.0221 104.377 55.1294 103.995 55.2654Z" fill="#7A570F"/>
<path d="M54.04 77.9109C53.2939 78.3422 51.829 79.012 51.1647 78.4523C52.1201 78.3514 53.303 77.5347 54.04 77.9109Z" fill="#7A570F"/>
<path d="M103.521 58.0548C105.905 57.596 108.235 56.7702 110.5 56.7427C106.983 58.5733 103.116 59.6185 99.1629 59.8073C98.0983 59.8624 96.5332 60.2936 95.8599 59.2201L96.2512 59.0274C98.6932 58.865 101.122 58.54 103.521 58.0548Z" fill="#7A570F"/>
<path d="M99.0355 61.5691C99.1629 61.5049 99.1083 61.3764 99.2811 61.3306C101.813 61.1826 104.319 60.7423 106.752 60.0184C108.626 59.5596 110.51 59.2936 112.211 58.9724C112.775 58.8623 113.439 58.5044 113.967 58.8531C109.854 61.1379 105.951 61.2113 102.584 61.6058C101.356 61.7068 100.1 62.2573 99.0355 61.5691Z" fill="#7A570F"/>
<path d="M102.029 63.3125C104.55 64.0282 108.016 62.0279 110.346 63.3125C108.91 63.9328 107.357 64.2272 105.796 64.175C104.44 64.175 102.839 64.4687 101.765 63.5695C101.902 63.4594 101.856 63.3125 102.029 63.3125Z" fill="#7A570F"/>
<path d="M111.046 65.2392C109.682 65.5971 108.317 65.8173 107.352 65.0832C108.635 65.019 110.009 64.6336 111.046 65.2392Z" fill="#7A570F"/>
<path d="M26.051 109.283C26.7243 108.852 27.3703 108.301 28.0255 107.842C32.3257 104.952 36.8023 102.338 41.4286 100.016C41.5196 99.9696 41.5833 100.016 41.6652 100.016C41.7471 100.016 41.8198 100.015 41.8562 100.171C36.9973 104.044 30.7188 107.411 24.3312 110.742C24.3676 109.806 25.4595 109.659 26.051 109.283Z" fill="#7A570F"/>
<path d="M20.464 112.237C21.2011 111.824 22.1747 111.274 22.7116 111.632C21.4379 112.691 19.969 113.487 18.3894 113.971C18.4167 113.32 19.636 112.705 20.464 112.237Z" fill="#7A570F"/>
<path d="M42.0928 103.933C42.0928 104.016 42.0928 104.089 41.9473 104.126C38.8262 107.429 31.9381 110.962 27.1701 112.632C26.4786 112.871 25.6233 113.458 25.0227 112.944C30.6642 110.191 35.9417 106.677 41.9017 103.768C41.9927 103.768 42.0564 103.805 42.0928 103.933Z" fill="#7A570F"/>
<path d="M24.7225 113.329C24.1401 114.302 21.7835 115.165 20.91 114.697C21.92 114.082 23.7671 113.036 24.7225 113.329Z" fill="#7A570F"/>
<path d="M135.023 61.2847H135.123C136.506 61.2847 138.18 60.67 139.854 60.3672C142.803 59.7708 145.578 59.1101 148.544 58.3394C150.036 57.954 151.447 57.1098 152.994 57.0364C147.885 60.0127 142.129 61.6765 136.233 61.8812C135.933 61.7986 134.895 61.9821 135.023 61.2847Z" fill="#7A570F"/>
<path d="M70.6734 99.5567C74.9773 99.2356 80 96.8041 84.3221 96.4829C80.9372 99.0796 76.606 99.4466 73.0755 99.988C72.2384 100.116 71.0737 100.41 70.6734 99.5567Z" fill="#7A570F"/>
<path d="M142.957 66.3222C145.02 66.4587 147.092 66.2729 149.099 65.7717C151.137 65.3771 153.23 64.5788 155.196 64.6431C154.122 65.8267 152.211 66.0836 150.646 66.4782C149.137 66.9003 147.58 67.1224 146.015 67.1388C144.917 67.1328 143.83 66.918 142.812 66.5057C142.793 66.4231 142.839 66.3589 142.957 66.3222Z" fill="#7A570F"/>
<path d="M69.2084 103.319C70.6642 103.594 72.1565 103.75 73.3758 104.704C71.874 104.713 70.4106 104.226 69.2084 103.319Z" fill="#7A570F"/>
<path d="M95.7051 92.0416C93.8853 93.6748 91.0919 94.3172 88.999 94.9319C88.0163 95.2256 86.7971 95.8495 86.1237 95.2347C89.2356 94.6566 92.8207 91.7571 95.7051 92.0416Z" fill="#7A570F"/>
<path d="M84.7498 102.474C81.6287 103.392 78.5078 102.933 75.7325 103.071C74.8226 103.071 73.6488 103.585 72.9208 102.731C76.788 101.942 81.1829 101.621 84.7498 102.474Z" fill="#7A570F"/>
<path d="M151.975 68.5149C150.299 69.2207 148.421 69.2633 146.715 68.6342C146.708 68.5808 146.713 68.5263 146.73 68.4752C146.747 68.4242 146.777 68.378 146.815 68.3406C148.362 68.9095 150.564 67.5882 151.975 68.5149Z" fill="#7A570F"/>
<path d="M75.1228 104.833C77.3339 105.833 79.9545 105.631 81.647 108.118C80.5005 108.118 79.4722 107.118 78.3621 106.549C77.252 105.98 75.9145 105.695 74.8772 105.071C74.9682 105.007 74.9682 104.879 75.1228 104.833Z" fill="#7A570F"/>
<path d="M90.1274 107.173C87.497 107.201 84.8775 106.83 82.3567 106.071C81.0836 105.841 79.855 105.407 78.717 104.787C78.8444 104.723 78.7898 104.594 78.9627 104.548C81.4559 105.035 84.0309 105.649 86.6333 105.943C89.2357 106.237 91.7835 105.704 94.2675 106.503C93.0391 107.448 91.4376 107.145 90.1274 107.173Z" fill="#7A570F"/>
<path d="M24.0947 135.553C22.4204 136.223 20.1638 136.948 19.1265 136.021C20.4368 135.929 22.8481 134.699 24.0947 135.553Z" fill="#7A570F"/>
<path d="M36.4422 130.295C36.3512 129.717 37.152 129.451 37.5341 129.038C37.6615 129.607 36.8881 130.213 36.4422 130.295Z" fill="#7A570F"/>
<path d="M91.192 110.43C92.1656 110.622 93.4031 110.751 94.1492 111.549C91.2648 112.192 87.7798 110.953 85.1228 109.843C84.131 109.43 82.7753 109.274 82.1201 108.861C81.9563 108.76 81.8835 108.806 82.0746 108.521C84.9773 109.632 88.1802 109.824 91.192 110.43Z" fill="#7A570F"/>
<path d="M35.8417 132.296C35.8417 131.378 37.2976 130.892 37.9709 130.167C37.8888 130.705 37.6376 131.202 37.2543 131.585C36.871 131.968 36.3758 132.217 35.8417 132.296Z" fill="#7A570F"/>
<path d="M36.8881 133.25C37.3158 133.865 35.5687 134.755 35.2138 134.296C35.3139 133.663 36.5059 133.846 36.8881 133.25Z" fill="#7A570F"/>
<path d="M46.3967 138.003C42.4022 138.801 39.445 136.581 36.0692 135.59C36.1965 135.525 36.142 135.397 36.3148 135.351C39.0446 135.608 41.465 136.709 43.9764 137.186C44.7316 137.388 45.8508 137.186 46.3967 138.003Z" fill="#7A570F"/>
<path d="M40.5733 133.892C42.0746 133.782 43.9581 132.589 45.2593 133.085C43.7857 133.831 42.1672 134.242 40.5187 134.287C40.4789 134.225 40.4625 134.152 40.4726 134.079C40.4826 134.006 40.5184 133.94 40.5733 133.892Z" fill="#7A570F"/>
<path d="M121.702 94.8954C123.521 93.8586 126.251 92.9502 128.699 91.8583C132.402 90.225 136.106 88.188 139.245 86.8758C140.701 86.2427 141.92 85.3894 142.884 85.4536C142.257 86.3712 140.874 86.7015 139.691 87.3713C135.96 89.5634 132.114 91.5513 128.171 93.3264C125.696 94.3908 123.157 95.5194 121.028 95.5744C121.147 95.1615 121.374 95.0881 121.702 94.8954Z" fill="#7A570F"/>
<path d="M60.4094 129.139C56.8266 130.766 53.0717 131.975 49.2175 132.745C48.0437 132.929 46.7698 133.544 45.8053 132.938C45.9236 132.874 45.878 132.745 46.0509 132.699C46.7015 132.791 47.3643 132.682 47.9527 132.387C53.2484 130.323 59.5996 127.717 64.7861 126.414C64.2493 127.543 61.9017 128.46 60.4094 129.139Z" fill="#7A570F"/>
<path d="M53.7034 134.58C50.737 136.048 47.5705 136.048 44.9682 136.021C44.0582 136.021 42.9663 136.223 42.2384 135.635L42.4386 135.544C44.3793 135.5 46.3153 135.332 48.2347 135.039C50.0728 134.8 51.9745 134.323 53.7034 134.58Z" fill="#7A570F"/>
<path d="M40.7097 144.059C39.2083 144.674 37.5887 144.527 36.0782 144.729C34.5678 144.931 33.0118 145.509 31.5287 145.243C34.5223 144.059 38.0436 143.435 40.7097 144.059Z" fill="#7A570F"/>
<path d="M28.3075 146.903C28.8444 146.316 30.5369 145.784 31.2375 146.215C30.8553 147.252 29.1083 146.912 28.3075 146.903Z" fill="#7A570F"/>
<path d="M54.95 134.213L55.1501 134.112C59.8089 132.837 65.2684 129.24 69.8908 128.056C67.2611 130.286 62.02 133.231 58.3621 134.02C57.3612 134.241 55.7689 134.681 54.95 134.213Z" fill="#7A570F"/>
<path d="M51.2102 138.719C50 138.608 48.6897 138.636 47.8617 138.03L48.1529 137.884C48.2075 137.994 48.2529 138.021 48.3439 138.03C52.8389 138.7 58.5805 135.535 63.2757 135.663C59.6038 137.768 55.4326 138.824 51.2102 138.719Z" fill="#7A570F"/>
<path d="M32.6024 146.279C33.6397 145.683 35.041 145.701 36.3603 145.554C38.482 145.319 40.6259 145.384 42.7298 145.747C43.7489 145.912 44.959 145.921 45.4595 146.729C43.317 146.872 41.1654 146.774 39.0446 146.435C36.9245 146.233 34.859 146.316 32.6024 146.279Z" fill="#7A570F"/>
<path d="M32.7389 146.812C35.96 147.169 39.2357 147.344 42.0473 148.876C39.5757 148.858 37.1146 148.55 34.7134 147.958C33.9048 147.899 33.132 147.599 32.4932 147.096C32.6115 147.004 32.566 146.876 32.7389 146.812Z" fill="#7A570F"/>
<path d="M35.1501 151.133C34.1401 151.546 33.1756 150.885 32.4204 150.5C31.5414 150.133 30.7272 149.625 30.0091 148.995L30.3002 148.848C31.929 149.628 33.7852 149.674 35.1501 151.133Z" fill="#7A570F"/>
<path d="M130.473 102.199C132.985 100.878 135.869 100.245 138.662 99.1802C141.01 98.2626 143.303 97.0881 145.551 96.9321C142.093 99.4463 136.615 101.318 133.021 102.034C132.193 102.217 131.21 102.621 130.473 102.199Z" fill="#7A570F"/>
<path d="M140.628 101.667C139.152 102.703 137.484 103.428 135.723 103.796C134.859 104.043 133.776 104.603 133.194 104.053C135.432 102.997 138.562 101.428 140.628 101.667Z" fill="#7A570F"/>
<path d="M164.322 105.016C164.167 104.154 165.15 103.759 165.56 103.319C167.064 101.752 168.381 100.012 169.481 98.1345C171.59 94.5789 173.268 90.7804 174.477 86.8208C174.516 86.8329 174.551 86.8531 174.582 86.8801C174.613 86.9071 174.637 86.9402 174.655 86.9774C174.672 87.0146 174.681 87.055 174.682 87.0959C174.682 87.1369 174.675 87.1776 174.659 87.2154C174.302 91.5054 172.922 95.645 170.637 99.2814C169.161 101.797 166.957 103.798 164.322 105.016Z" fill="#7A570F"/>
<path d="M141.056 105.346C140.196 105.805 139.243 106.059 138.271 106.09C137.316 106.264 136.16 106.869 135.441 106.246C137.234 106.172 139.49 104.759 141.056 105.346Z" fill="#7A570F"/>
<path d="M140.091 107.64C141.024 107.406 142.004 107.438 142.921 107.732C142.494 108.004 141.996 108.141 141.492 108.125C140.987 108.109 140.499 107.94 140.091 107.64Z" fill="#7A570F"/>
<path d="M169.318 102.594C169.208 101.814 170.009 101.355 170.419 100.841C171.902 99.0059 173.148 96.822 174.832 95.1704C174.885 95.1601 174.94 95.164 174.991 95.1818C175.042 95.1995 175.087 95.2304 175.123 95.2714C174.049 98.0149 171.611 100.281 169.318 102.594Z" fill="#7A570F"/>
<path d="M80.2639 160.896C77.9291 160.864 75.6091 160.516 73.3667 159.859C71.9927 159.419 70.637 158.666 69.3085 158.18C67.8547 157.804 66.4674 157.204 65.1956 156.4C65.1894 156.347 65.1951 156.293 65.2125 156.242C65.2298 156.191 65.2582 156.145 65.2957 156.106C65.4595 156.345 65.7325 156.262 65.8781 156.556C69.3904 157.235 72.7479 158.859 76.4877 159.309C79.2174 159.657 82.202 159.694 84.9499 159.832C85.8598 159.832 86.8517 159.74 87.5705 160.272C85.1876 160.896 82.7169 161.107 80.2639 160.896Z" fill="#7A570F"/>
<path d="M72.1383 154.253L72.3385 154.152C74.6538 154.048 76.9621 153.821 79.2539 153.473C81.5105 153.244 83.7489 152.684 85.687 153.033C82.0473 154.446 78.4076 154.455 75.2047 154.593C74.1765 154.638 72.8298 155.07 72.1383 154.253Z" fill="#7A570F"/>
<path d="M83.9673 150.702C82.2657 151.546 80.1456 151.555 78.3075 151.987C79.7998 150.858 82.3567 150.61 83.9673 150.702Z" fill="#7A570F"/>
<path d="M81.8835 156.951C79.9342 157.402 77.9168 157.471 75.9418 157.153C73.9764 156.933 72.0109 156.565 70.1638 156.18C70.1265 156.12 70.1116 156.048 70.1216 155.977C70.1315 155.907 70.1658 155.842 70.2184 155.795C72.2337 156.056 74.2653 156.166 76.2967 156.125C78.1802 156.208 80.273 155.987 81.8835 156.951Z" fill="#7A570F"/>
<path d="M110.455 140.756C112.683 139.74 114.975 138.872 117.316 138.159C119.381 137.507 121.392 136.489 123.276 136.489C120.164 138.902 115.769 139.517 112.803 140.352C112.047 140.572 111.247 141.187 110.455 140.756Z" fill="#7A570F"/>
<path d="M118.526 140.636C119.672 140.388 120.864 139.939 121.984 140.297C118.471 142.508 114.24 142.591 110.801 142.921C109.645 143.031 108.071 143.618 107.252 142.811L107.452 142.719H107.543C109.936 142.398 112.475 141.71 114.968 141.306C116.178 141.067 117.37 140.884 118.526 140.636Z" fill="#7A570F"/>
<path d="M129.5 142.618C123.194 145.123 116.952 144.876 111.702 144.554C110.928 144.499 109.882 144.738 109.372 143.976L109.572 143.885C111.487 143.96 113.404 143.923 115.314 143.774C120.146 143.497 124.928 142.647 129.563 141.242C130.409 140.985 131.465 140.324 132.393 140.847C131.856 141.646 130.382 142.224 129.5 142.618Z" fill="#7A570F"/>
<path d="M169.6 124.634C169.199 126.469 166.752 128.809 165.378 130.461C165.005 130.901 164.595 131.938 163.949 131.516C165.823 129.231 167.307 126.79 169.6 124.634Z" fill="#7A570F"/>
<path d="M87.9982 171.026C87.0883 171.026 85.9873 171.292 85.323 170.503C88.9627 170.934 93.1756 169.806 96.7607 170.43C93.6852 171.375 90.6642 171.173 87.9982 171.026Z" fill="#7A570F"/>
<path d="M88.0254 172.109C90.3422 172.488 92.6783 172.737 95.0227 172.852C96.2147 172.907 97.5614 172.513 98.5714 173.201C94.586 174.118 90.8462 173.449 87.5341 172.595C86.4058 172.302 84.9318 172.403 84.1492 171.311L84.4404 171.173C85.3503 171.87 86.7243 171.916 88.0254 172.109Z" fill="#7A570F"/>
<path d="M124.058 160.841C123.148 161.126 122.002 161.667 121.383 161.043C124.732 160.318 129.117 157.501 132.939 156.455C130.883 158.52 126.688 160.006 124.058 160.841Z" fill="#7A570F"/>
<path d="M124.004 161.493C126.26 160.685 128.817 159.658 130.855 158.896C131.865 158.502 132.884 157.749 133.84 158.061C131.884 159.658 129.017 160.392 127.025 160.997C125.924 161.3 124.832 161.998 124.004 161.493Z" fill="#7A570F"/>
<path d="M123.703 162.355C125.469 162.548 128.453 160.768 129.891 161.658C128.699 162.328 127.434 162.254 126.178 162.493C125.205 162.667 124.131 163.245 123.449 162.594C123.576 162.53 123.53 162.41 123.703 162.355Z" fill="#7A570F"/>
<path d="M75.0409 100.85C74.131 101.548 70.9008 102.08 69.6724 101.768C74.0491 101.465 79.1447 99.1346 84.0218 98.7034C81.0646 100.236 77.8526 100.483 75.0409 100.85Z" fill="#7A570F"/>
<path d="M226.015 42.0682C224.028 43.0548 221.858 43.6082 219.645 43.6924C213.367 44.3071 208.025 43.8208 201.319 45.7661C196.703 47.247 192.288 49.3062 188.18 51.8955C181.274 56.1071 175.787 60.6583 178.881 68.3383C180.082 71.3113 182.157 73.8438 183.922 76.3671C186.479 80.2084 188.08 84.6149 188.59 89.2131C188.699 90.3968 189.254 92.6082 188.098 92.9844C186.761 93.4248 185.541 89.3874 184.668 87.8276C183.628 85.9907 182.409 84.2632 181.028 82.6708C183.239 90.6537 181.729 97.352 176.588 102.72C180.883 105.83 180.3 112.198 179.409 115.722C178.044 121.135 174.759 126.558 170.864 130.953C168.189 133.954 163.885 138.046 159.809 137.899C160.346 142.487 158.335 146.093 155.733 149.828C150.2 157.838 136.624 166.62 125.605 166.152C124.513 173.281 113.467 177.823 106.351 178.172C100.673 178.447 95.1684 178.172 90.173 176.649C89.4664 176.325 88.7143 176.115 87.9437 176.025C86.9606 176.303 86.0091 176.684 85.1047 177.162C79.4089 179.326 73.1719 179.574 67.3249 177.869C61.374 176.263 56.1511 171.125 50.6825 168.289C49.6452 167.748 45.3959 166.968 48.5351 165.307C40.5642 162.922 34.1584 153.673 26.5879 149.709C25.3049 149.03 23.4851 149.039 23.3577 147.259C19.1903 147.791 15.5142 146.442 11.5288 143.148C9.95462 141.854 8.52603 140.047 6.63341 138.211C5.39592 137.009 2.24757 135.358 1.60153 133.477C1.10109 132.018 3.53966 130.724 5.05922 130.091C4.57695 129.596 3.59424 129.963 3.17567 128.935C2.75711 127.907 4.08563 125.934 4.69528 124.787C5.5233 123.172 6.51507 121.897 7.04283 120.851C5.55057 120.778 1.92909 122.154 0.964582 120.998C0.382231 120.319 0.609755 118.924 0.718946 117.951C0.960356 115.069 1.40735 112.208 2.0565 109.391C0.509626 109.666 0.0819836 107.28 0.0182934 106.115C0.0142345 104.619 0.15135 103.125 0.427763 101.655C0.891813 98.5265 2.42955 96.2601 3.80353 93.5624C4.1129 92.966 4.32217 92.2503 4.71344 91.5621C5.15007 90.94 5.51921 90.2725 5.81447 89.571C5.90892 88.4604 5.93927 87.3452 5.90542 86.231C6.41498 80.7256 7.26121 75.3945 10.1821 70.8892C11.514 68.9928 13.0933 67.286 14.8773 65.815C15.9501 64.8762 16.8818 63.7851 17.6434 62.576C18.0892 61.7686 18.3076 60.6583 18.6989 59.7499C19.0901 58.8415 19.6088 57.9147 20.0547 56.9972C22.6753 51.3633 24.4769 45.6376 27.8072 40.3341C31.2648 34.8286 36.1693 30.4518 42.5206 26.13C44.668 24.6619 47.0702 23.6801 49.6816 22.1661C52.0474 20.7806 53.658 18.5968 55.7053 16.8075C60.173 12.8895 64.5861 8.94389 71.3377 6.05353C75.2066 4.4023 79.239 3.17191 83.3667 2.38325C87.6889 1.63084 92.0838 1.66759 94.4132 5.30118C104.422 -2.0394 114.368 -0.984224 121.456 3.26414C122.471 4.03205 123.531 4.73682 124.632 5.37454C125.541 5.75074 127.216 5.5948 128.48 5.58562C129.764 5.55843 131.047 5.62587 132.32 5.78746C138.69 6.70503 146.033 10.3753 149.254 18.5142C149.449 19.2999 149.733 20.0604 150.1 20.7806C150.491 21.2761 151.729 21.4137 152.511 22.0469C153.122 22.6216 153.697 23.2345 154.231 23.882C154.422 22.6066 153.494 18.9088 155.141 18.3766C156.579 17.8719 157.935 21.5881 158.581 22.7901C160.928 27.1944 162.83 29.4058 165.605 31.4428C168.107 33.2779 170.446 35.1131 173.221 36.0307C177.325 37.407 181.028 36.6913 186.178 35.1131C193.021 33.0578 199.623 30.2612 205.869 26.7723C210.419 24.1756 216.151 18.1839 221.474 18.2297C224.049 18.2297 226.47 20.331 227.844 23.2856C230.755 29.4333 231.238 38.9944 226.015 42.0682ZM179.29 55.2446C181.702 52.2992 185.978 50.8219 189.618 48.4362C193.284 46.1088 197.2 44.2095 201.292 42.7748C194.195 44.6099 182.957 49.6107 179.454 54.951C179.436 54.951 178.926 55.1987 179.327 55.2446H179.29ZM178.116 97.2602C179.372 95.2049 179.299 92.7641 179.818 90.7088C178.581 93.5624 177.707 97.6915 174.359 99.8019C174.495 98.5907 175.441 97.7098 176.015 96.6822C177.716 93.6376 178.821 90.2922 179.272 86.8274C179.374 85.4367 179.162 84.0409 178.653 82.7442C178.653 86.91 177.216 90.562 175.514 94.1222C175.296 92.7917 176.087 91.5896 176.351 90.3142C177.143 86.4512 177.725 82.1845 175.814 77.303C175.359 80.1292 176.606 83.5517 175.005 85.9741C174.295 84.7262 174.695 82.9644 174.586 81.3036C174.586 80.5237 174.395 79.6887 174.386 78.8446C174.386 77.6242 174.932 76.6883 174.095 75.1743C173.631 80.12 173.403 84.9097 171.838 89.4242C170.273 93.9386 167.743 97.9025 165.177 102.032C164.577 101.481 165.232 100.729 165.396 100.196C166.724 95.994 168.462 92.076 168.945 87.3505C169.208 84.7813 169.49 82.2029 169.7 79.5603C170.069 76.9092 170.124 74.2232 169.864 71.559C169.363 71.6324 169.145 72.3206 168.954 72.7244C167.498 76.2111 167.753 80.588 167.079 84.4785C166.488 87.8368 165.978 91.085 165.177 94.4066C164.932 95.3884 164.795 96.8381 163.622 97.2327C162.985 96.3151 163.622 95.1498 163.767 94.2414C164.4 91.1236 164.789 87.9605 164.932 84.7813C165.023 80.3678 164.468 75.8625 165.323 71.6875C165.25 71.5866 165.196 71.6875 165.223 71.6875C161.147 77.1929 162.138 84.5335 162.047 91.6171C162.047 92.3328 162.102 93.4523 161.338 93.9111C160.528 93.3238 160.883 92.1494 160.837 91.3511C160.573 86.7632 160.091 82.1295 160.173 77.5875C160.218 74.8348 160.346 72.4583 161.456 70.146C155.669 75.1101 156.306 82.1386 158.617 90.0298C159.854 94.2414 161.711 98.3705 161.938 102.298C162.011 103.5 161.665 105.05 162.912 105.849C167.176 105.672 171.245 103.997 174.413 101.114C175.801 99.9889 177.045 98.6944 178.116 97.2602ZM160.109 135.945C163.185 135.027 165.569 132.761 167.634 130.715C171.486 126.947 174.549 122.439 176.642 117.456C177.772 114.912 177.867 112.023 176.906 109.409C176.906 114.529 174.086 119.098 171.01 122.861C171.156 121.493 172.175 120.53 172.721 119.355C174.523 115.835 175.432 111.92 175.369 107.959C173.394 108.363 173.157 110.354 172.639 111.703C172.12 113.052 171.729 114.712 171.356 116.098C170.519 119.034 169.936 122.108 167.589 124.356C167.589 122.961 168.344 121.603 168.772 120.007C169.572 117.061 170.255 114.043 171.238 111.015C171.665 109.721 173.23 107.858 171.647 106.555C170.591 106.344 170.355 108.124 170.1 109.134C169.845 110.143 169.682 111.07 169.527 111.721C168.853 113.347 168.324 115.03 167.944 116.749C167.698 114.419 169.19 111.987 169.026 109.409C167.434 116.401 166.415 124.017 163.403 130.77C163.048 131.55 162.575 132.991 161.374 132.844C161.147 131.752 161.774 130.715 162.056 129.715C163.529 124.621 164.519 119.398 165.014 114.116C165.105 113.033 165.15 111.96 165.305 110.932C165.553 109.968 165.729 108.986 165.833 107.996C163.148 110.978 162.702 115.061 162.075 118.832C161.583 121.75 161.165 124.54 160.773 127.503C160.664 128.302 160.719 129.614 159.809 130.036C158.808 129.522 159.454 128.201 159.554 127.485C160.155 122.897 160.127 118.062 160.983 113.52C161.329 111.684 162.138 109.914 161.893 108.088C160.625 108.656 159.607 109.671 159.026 110.941C156.843 115.529 157.98 121.613 157.816 126.87C156.979 126.641 156.843 125.476 156.724 124.842C155.673 119.869 155.867 114.71 157.288 109.831C153.995 113.042 154.349 118.346 156.16 123.897C157.516 127.99 158.226 132.605 160.109 135.918V135.945ZM155.723 94.3607C154.641 94.0579 153.094 94.5809 151.62 95.1315C150.146 95.682 148.581 96.673 147.47 96.049C149.589 95.2489 151.588 94.159 153.412 92.81C154.322 92.1586 155.414 91.5713 155.232 90.5803C153.412 90.2133 151.256 91.7548 149.418 92.5531C146.142 93.957 142.502 95.058 139.136 96.3151C136.57 97.2327 134.14 97.9393 131.565 98.655C130.846 98.8476 129.982 99.2789 129.272 98.9118C132.197 98.1074 135.059 97.0861 137.834 95.8563C142.684 93.9202 148.626 92.4705 152.584 89.0663C153.276 88.4699 154.231 87.6808 154.067 87.1211C153.74 85.9649 151.82 86.598 150.864 86.9742C149.307 87.616 147.788 88.3483 146.315 89.1672C140.027 92.5531 132.83 94.8929 126.297 97.4254C125.478 97.7465 124.541 98.398 123.667 97.976C124.104 96.8107 125.687 96.6638 126.806 96.205C128.335 95.5811 129.964 94.8378 131.41 94.2139C138.945 90.9657 147.607 87.3046 152.339 82.6066C149.973 82.3222 146.351 85.6071 144.086 85.0382C145.068 83.203 149.108 82.3681 150.864 80.7715C148.235 80.2485 143.667 83.0654 140.1 84.5335C135.305 86.5063 130.573 88.5341 125.46 90.5436C123.212 91.4612 119.427 93.1862 116.488 94.5259C116.106 94.7002 114.222 95.4985 113.858 94.8286C113.167 93.5532 117.225 92.3145 117.743 92.0759C127.27 87.9652 137.116 82.5516 146.142 77.4407C138.026 79.3951 128.854 83.6435 119.7 88.0753C118.608 88.6075 117.352 89.4517 116.187 89.0571C116.024 88.1396 117.17 87.8643 117.671 87.6074C125.086 83.6893 133.367 78.8171 141.601 75.2661C142.829 74.8943 143.966 74.2694 144.941 73.4309C142.73 71.9536 139.026 74.275 135.751 75.6881C134.668 76.1561 133.64 76.6883 132.666 77.0645C127.871 78.8996 123.349 82.1937 119.472 84.0839C118.802 84.5121 118.017 84.7204 117.225 84.6803C117.225 83.6801 118.471 83.2948 119.145 82.9002C121.692 81.4046 124.213 79.863 126.861 78.3123C130.501 76.1652 134.468 74.4769 137.944 72.4491C138.917 71.8802 139.945 71.192 140.118 70.1735C138.863 68.8155 136.752 69.99 134.95 70.7332C130.882 72.4346 127.002 74.5628 123.376 77.0828C122.466 77.7068 121.501 78.4867 120.573 79.0464C119.645 79.6062 118.508 80.4044 117.434 80.331C117.225 79.4134 118.344 79.1932 118.872 78.7803C121.092 76.9452 123.421 74.9174 126.015 72.9996C128.608 71.0819 131.319 69.3293 134.031 67.4942C131.084 68.4459 128.243 69.7004 125.551 71.2379C122.903 72.7794 120.773 74.9082 118.426 75.8258C118.117 75.0367 119.099 74.6971 119.518 74.3209C123.074 71.0567 126.97 68.1895 131.137 65.7691C127.343 65.3104 123.03 69.3201 120.155 71.0911C120.355 69.9441 121.629 68.788 122.584 67.8429C123.728 66.835 124.944 65.9149 126.224 65.0902C120.91 66.072 118.035 70.88 116.397 74.3668C115.37 76.5701 114.521 78.853 113.858 81.1935C112.484 86.1668 112.793 91.5529 110.728 95.6269C116.633 96.4619 122.138 99.8111 127.398 103.491C129.976 105.199 132.746 106.591 135.651 107.638C137.089 108.203 138.563 108.669 140.064 109.033C141.508 109.502 142.979 109.885 144.468 110.18C146.515 110.382 150.837 109.959 153.03 107.61C153.629 106.694 154.086 105.692 154.386 104.637C154.468 104.417 154.895 103.931 154.495 103.848C151.438 106.071 147.797 107.332 144.031 107.473C147.216 106.326 153.239 104.436 154.95 101.554C154.141 101.378 153.297 101.485 152.557 101.857C149.09 103.197 145.278 105.041 142.147 105.087C142.748 104.555 144.04 104.445 145.032 104.05C148.89 102.536 154.04 100.701 155.687 97.7833C154.873 97.4664 153.971 97.4664 153.157 97.7833C149.463 98.9761 144.968 101.802 141.82 101.096C145.833 100.086 152.43 97.2602 155.723 94.3332V94.3607ZM127.989 48.6289C128.899 48.0508 130.146 47.5737 130.41 46.6011C129.791 46.4634 129.108 47.1975 128.59 47.5186C126.458 48.5868 124.207 49.391 121.884 49.9135C119.682 50.4824 117.461 51.4734 115.587 51.143C119.5 49.9777 124.686 47.1516 129.163 45.1696C127.98 44.041 125.778 45.6009 123.703 46.3625C117.662 48.5647 111.192 50.0328 105.178 51.8129C102.63 52.5744 100.046 52.9874 97.8436 53.9141C96.0237 54.6941 94.4223 56.1163 92.3841 56.9237C91.8017 57.1531 89.8454 57.8964 89.5087 57.2174C89.081 56.3916 91.0191 55.7584 91.7744 55.3822C95.414 53.6021 98.3349 51.868 102.211 50.1888C109.94 46.953 117.837 44.1442 125.869 41.7747C121.884 40.8571 117.516 43.1602 112.939 44.5274C106.562 46.2579 100.413 48.7499 94.6224 51.9505C93.2757 52.7213 91.6652 54.0518 90.273 53.4553C90.4641 52.0606 92.2839 51.5468 93.667 50.9504C96.6186 49.7163 99.4852 48.2847 102.248 46.6653C105.505 45.5826 109.117 43.463 112.439 42.2151C106.278 42.5821 98.3804 45.9771 91.5105 49.7942C91.4195 48.8767 92.6206 48.5188 93.2394 48.0967C96.8791 45.6193 101.529 42.16 106.397 40.7561C102.193 40.8387 94.4131 43.1877 91.3194 46.858C90.7826 45.6101 92.4751 44.665 93.6489 43.8943C96.2967 42.1509 99.9182 39.5633 103.303 39.0861C103.258 38.82 102.22 38.1686 101.72 38.031C99.9537 37.6718 98.1184 37.958 96.5424 38.8384C92.9573 40.7378 91.0829 44.9311 89.6361 48.3995C88.0983 52.1432 86.9882 55.8869 85.2958 58.7864C96.4514 59.3095 105.141 70.7975 118.053 65.6682C119.708 64.9322 121.243 63.9451 122.602 62.7412C119.045 64.2276 115.487 65.7141 112.693 64.9984C115.688 64.3097 118.561 63.1616 121.21 61.5942C123.849 60.1353 126.269 58.9883 127.216 57.2174C124.313 59.4809 120.971 61.1034 117.407 61.9796C115.969 62.2548 114.404 62.8238 113.367 62.108C119.263 60.8418 127.016 56.3273 129.745 51.9597C127.725 54.2995 123.876 55.7493 120.428 56.9697C119.09 57.4376 117.607 58.3919 116.47 57.7863C121.629 55.8685 127.389 52.3726 130.619 48.9776C126.83 51.7061 122.53 53.6264 117.98 54.6207C116.561 54.9327 115.159 55.7401 113.931 55.2446C118.842 53.5631 123.556 51.3447 127.989 48.6289ZM110.455 31.8098C112.907 32.1229 115.373 32.3067 117.844 32.3604C121.253 32.6784 124.689 32.5674 128.071 32.03C127.753 31.5162 127.379 31.1859 127.061 30.6904C123.822 31.5621 120.692 31.0849 117.871 30.6445C114.972 30.2142 112.104 29.6013 109.281 28.8094C111.729 28.9837 114.422 29.1856 117.161 29.1305C119.9 29.0754 122.621 29.002 125.287 28.9562C124.377 28.2129 123.467 27.3871 122.557 26.5154C117.989 26.0115 113.391 25.8398 108.799 26.0016C104.622 26.1209 100.373 27.3596 95.869 28.0111C95.405 28.0845 94.5315 28.4515 94.2676 27.6991C97.6798 26.8916 103.085 25.1391 106.925 24.1114C108.817 23.6067 110.682 23.2489 112.493 22.8727C114.304 22.4964 116.133 22.6065 117.771 21.7716C113.385 20.5787 107.134 22.0101 101.683 23.4966C99.2721 24.1481 96.7243 24.7445 94.7316 26.13C94.7316 24.9005 97.3431 24.1572 98.8081 23.5425C104.344 21.3692 110.072 19.7317 115.915 18.6518C115.287 17.1745 113.421 17.5324 112.184 17.67C109.204 18.0087 106.262 18.623 103.394 19.5052C101.865 19.9731 100.446 20.7439 98.9536 20.8081C103.44 17.6975 109.281 16.2753 113.876 15.1467C112.966 13.1372 110.919 13.9905 108.726 14.486C106.667 14.8715 104.713 15.6941 102.994 16.8992C102.884 15.5779 104.813 14.8714 106.051 14.1465C108.007 13.0248 110.179 12.3395 112.42 12.137C112.753 11.6679 113.193 11.287 113.703 11.0268C110.974 11.3113 108.408 11.3571 105.205 13.2015C102.002 15.0458 99.7453 17.9269 97.5524 20.4502C95.2139 23.1296 93.1939 25.8456 90.9191 28.0478C96.1966 31.2317 101.037 35.5718 106.979 37.4253C112.775 39.2605 119.199 39.9579 126.497 37.3336C121.371 38.632 115.966 38.2199 111.092 36.1591C112.002 35.6728 113.094 36.3701 114.104 36.4068C115.114 36.4435 116.524 36.2417 117.743 36.2141C121.01 36.1499 125.278 36.26 128.826 34.1313C125.236 34.7736 121.561 34.7736 117.971 34.1313C116.306 33.8285 114.55 33.6266 112.921 33.2137C111.26 32.8406 109.662 32.2222 108.18 31.3786C108.999 31.195 109.7 31.6722 110.455 31.8098ZM37.9346 74.4219C40.0274 72.7794 42.4842 71.2195 44.7226 69.4211C47.5342 67.1363 50.2549 64.7323 53.1484 62.5301C57.5888 59.1627 62.1566 55.9878 67.3158 52.7396C68.8536 51.767 70.637 50.9045 71.7926 49.4731C65.3231 51.3082 59.2357 55.4373 54.2676 59.3095C51.7289 61.2914 49.1174 63.1541 46.6425 65.081C44.1675 67.0079 41.9655 69.4211 39.1084 70.5864C39.9201 69.4407 40.9057 68.4312 42.0292 67.5951C49.5045 60.59 57.3862 54.0392 65.6325 47.9774C60.0183 49.941 55.6234 53.4003 51.6379 56.6026C47.6525 59.8049 43.5396 62.888 40.1456 66.439C39.8181 65.7049 40.728 65.2553 41.0556 64.8791C46.6607 59.181 52.8845 52.8498 59.9455 47.5554C61.001 46.7663 62.3568 46.179 62.9118 44.8944C60.2549 44.6558 57.1611 47.1149 54.7225 48.996C51.4363 51.5158 48.3652 54.3089 45.5415 57.3458C44.1402 58.8415 42.9209 60.4564 41.3467 61.4474C41.3467 60.4013 42.3295 59.6765 42.9391 58.97C47.4432 53.7582 52.9027 48.3169 58.1621 43.307C54.3768 44.2705 51.5014 46.8213 49.2176 49.1061C46.9337 51.3908 44.8591 53.9967 42.8481 56.3182C42.2931 55.6575 43.1484 55.0244 43.4578 54.5656C46.1804 50.4705 49.3719 46.7132 52.9664 43.3712C46.0692 46.179 43.7944 50.7118 41.5469 55.3639C40.3475 57.8027 39.3346 60.3303 38.5169 62.9247C36.9246 68.2191 36.0146 73.7796 32.7844 78.2482C41.8836 78.2482 51.8381 82.1478 62.4751 77.7251C66.1147 76.202 69.3358 73.697 70.5096 71.0268C70.4368 70.9167 70.3822 71.0268 70.4095 71.0268C65.6779 74.5044 59.4177 77.0737 54.4496 77.5508C60.9373 75.3211 69.0083 70.6782 73.2576 66.3564C70.6006 67.4208 67.2248 69.9441 63.7854 71.3204C63.5215 71.4214 63.2303 71.4857 62.9573 71.5958C61.7653 72.1096 60.2275 73.4309 59.0901 72.862C62.2839 71.0727 66.1056 68.7605 69.5997 66.5491C72.4568 64.714 75.5506 62.7412 75.9691 60.3188C73.2393 62.5943 68.6352 64.4111 65.4141 66.7418C65.0683 65.6223 66.97 64.9067 68.0255 64.1267C69.0811 63.3468 70.364 62.4108 71.4286 61.6309C73.6761 59.9793 76.1511 58.346 76.6698 56.1255C71.7926 59.2177 65.9782 63.3376 59.6816 66.072C57.9489 66.74 56.2749 67.5533 54.6771 68.5035C55.0592 67.4116 56.324 67.0538 57.2339 66.5308C59.9637 64.9434 62.8936 62.8605 65.7416 61.0253C69.5087 58.6396 73.1393 55.9878 76.6607 53.6847C75.2776 52.7029 73.3759 54.6023 71.8563 55.5199C63.6671 60.4289 54.4041 65.5031 45.7962 70.4763C44.0856 71.4673 42.4386 72.5133 40.8827 73.5869C39.3267 74.6604 38.0164 76.0643 36.2148 76.2203C36.233 75.367 37.3522 74.8715 37.9164 74.4219H37.9346ZM22.4659 91.8557C24.753 88.3359 27.481 85.1285 30.5824 82.313C26.8153 83.3132 24.1584 86.9008 22.2021 89.7912C20.5074 92.3704 19.0631 95.1083 17.8891 97.9668C15.3413 103.995 14.9318 110.464 12.4751 115.456C15.8054 115.575 19.5633 116.373 23.5033 116.309C27.4432 116.245 31.5014 116.025 35.5051 114.382C37.9433 113.442 40.1911 112.061 42.1384 110.308C43.3031 109.134 44.213 107.445 45.5597 106.096C46.9063 104.748 48.799 103.931 49.991 102.233C46.4423 104.014 43.485 107.693 39.1265 109.574C34.4587 111.611 30.0274 115.034 25.4778 114.96C29.2448 112.574 34.1948 112.363 37.88 109.565C39.0356 108.647 40.082 107.519 41.283 106.574C44.8499 103.747 49.4723 101.215 52.4023 98.0035C50.9464 98.3888 49.4996 99.8386 47.7435 100.875C46.1677 101.791 44.5105 102.556 42.7935 103.16C46.2512 100.408 50.9828 97.3795 53.7126 94.1038C50.9009 95.9389 46.5242 97.4346 43.7035 99.4441C43.7035 98.4347 45.1775 97.875 46.1693 97.2694C47.2016 96.6333 48.2008 95.9443 49.163 95.2049C51.1284 93.7368 53.9127 92.7274 54.2494 90.6721C52.7207 90.5253 51.2467 91.4245 49.4996 92.3696C43.7307 95.4893 37.5979 98.7926 32.0747 102.408C27.98 105.087 24.0583 107.574 20.3186 110.418C19.1539 111.336 18.0711 112.474 16.6334 112.813C16.3877 112.006 17.4068 111.336 17.88 110.877C22.6076 106.521 27.627 102.499 32.9027 98.8384C35.9419 96.6363 39.0356 94.3332 42.1566 92.1585C44.5042 90.5161 46.7698 88.791 49.2357 87.2587C49.9364 86.8274 51.0556 86.5247 51.1648 85.4695C48.9783 85.9325 46.8799 86.7473 44.95 87.8827C39.6382 91.0698 34.5572 94.6328 29.7453 98.5449C27.3613 100.38 24.9773 102.215 22.7571 104.124C20.6937 106.103 18.502 107.943 16.1966 109.629C16.4605 108.051 17.9073 106.977 19.0265 105.959C24.9409 100.508 31.9382 95.1498 38.5442 89.6719C40.7027 88.018 42.9506 86.4864 45.2776 85.084C45.9418 84.6528 46.9063 84.3225 47.152 83.4416C40.6825 86.0842 35.4778 90.0481 30.6006 93.7918C28.1074 95.7003 25.6416 97.5447 23.4578 99.5725C21.274 101.6 19.445 103.903 16.8972 105.307C17.0974 103.949 18.2894 102.94 19.1812 102.004C24.3454 96.7322 29.8865 91.8499 35.7598 87.3963C36.9973 86.4788 38.1803 85.4878 39.4996 84.6436C40.637 83.8729 42.1202 83.1021 42.5569 81.6891C39.6361 82.2029 36.4878 84.5243 33.8764 86.5154C28.3176 90.863 23.0724 95.6035 18.1803 100.701C17.971 99.7836 19.163 98.866 19.8272 98.0769C25.1879 91.587 31.3776 85.8419 38.2348 80.9917C37.0974 80.799 35.7599 81.6156 34.5952 82.157C27.4523 85.4602 24.213 90.7822 20.6734 95.4893C20.6006 94.0671 21.7289 92.9476 22.475 91.9016L22.4659 91.8557ZM7.73437 123.228C7.60698 123.356 7.73439 123.338 7.87088 123.283C9.8909 121.447 11.3468 119.007 14.8681 117.942C11.456 117.447 8.63521 120.961 7.74348 123.273L7.73437 123.228ZM93.2667 159.875C94.7459 159.684 96.2028 159.346 97.6161 158.866C100.842 158.053 103.962 156.864 106.915 155.324C108.317 154.517 109.582 153.489 109.836 152.085C105.534 154.338 100.859 155.778 96.0419 156.334C91.7198 156.902 87.4614 157.416 83.485 156.829C87.6526 156.585 91.7991 156.058 95.8963 155.251C100.574 154.306 105.095 152.7 109.327 150.479L108.999 149.782C108.03 149.835 107.083 150.088 106.215 150.525C100.901 152.204 95.5233 152.535 90.455 152.939C89.7271 152.994 88.708 153.241 88.1257 152.608C93.9673 152.315 101.065 150.406 107.807 148.296C107.15 147.768 106.416 147.344 105.632 147.039C102.354 148.005 99.0082 148.723 95.6234 149.186C92.512 149.821 89.3437 150.128 86.1693 150.103C91.6288 148.993 98.0802 147.103 103.703 146.35C102.724 145.871 101.628 145.683 100.546 145.809C99.3927 145.76 98.2374 145.79 97.0883 145.901C95.687 146.167 94.1766 146.818 92.7389 147.167C85.9146 149.002 78.8354 150.461 71.6834 152.672C69.536 153.324 67.3886 154.141 65.2321 154.581C64.6497 154.7 63.8945 155.104 63.3304 154.645C63.4032 153.865 64.4314 153.728 64.95 153.498C69.6725 151.388 74.7225 149.525 79.7362 147.782C82.4659 146.864 85.3049 145.846 88.0528 144.965C92.6024 143.524 97.5706 143.13 100.3 139.267C94.3131 141.102 88.5442 142.891 82.5114 144.488C76.2635 146.305 70.1764 148.644 64.3131 151.48C72.6479 145.497 84.1129 141.102 93.7671 137.799C94.677 137.487 95.5869 137.083 96.4969 136.881C97.3167 136.773 98.1306 136.623 98.9355 136.431C99.6907 136.101 101.074 135.073 100.382 134.147C99.8818 133.468 97.1429 134.312 95.9418 134.716C86.4878 137.89 77.3431 142.451 68.071 146.644C71.8381 143.68 76.5697 141.313 81.3285 138.753C86.6366 136.042 92.1067 133.667 97.7071 131.642C98.7742 131.169 99.7922 130.592 100.746 129.917C94.8044 130.293 86.879 133.642 79.9546 137.257C77.6707 138.432 75.3504 139.588 73.7671 141.23C73.6943 140.203 74.9045 139.698 75.587 139.248C78.0255 137.643 80.7826 136.037 83.8854 134.367C86.0237 133.22 88.3713 132.201 90.6006 130.99C93.3304 129.504 96.4696 128.467 98.162 126.834C97.334 126.155 96.1511 126.916 95.1866 127.182C90.5278 128.458 83.2485 131.394 79.1083 134.743C79.2357 133.55 80.9282 133.082 82.0656 132.33C85.6015 129.788 89.3111 127.5 93.1666 125.485C84.5042 126.522 77.2794 133.348 72.7753 138.423C67.7981 144.02 63.6761 150.085 57.7799 155.067C57.6434 155.37 58.4077 155.535 58.7899 155.673C65.2958 158.049 71.6197 161.307 78.6352 162.848C84.1857 164.069 90.2003 163.564 96.6425 162.637C100.91 162.022 107.143 160.417 109.245 156.398C109.418 156.067 109.9 155.609 109.554 155.278C107.025 158.407 101.447 159.985 97.4523 160.536C96.0608 160.664 94.662 160.691 93.2667 160.619C91.829 160.619 90.3367 161.022 89.2357 160.261C90.5187 160.004 91.829 160.04 93.3212 159.921L93.2667 159.875ZM135.023 139.56C138.462 138.083 141.692 135.055 144.513 132.633C145.887 131.485 147.131 130.19 148.226 128.77C149.254 127.43 150.455 126.017 150.382 124.43C149.909 124.301 149.845 124.925 149.645 125.154C147.535 127.577 145.188 129.778 142.639 131.724C139.369 134.402 135.746 136.61 131.874 138.285C130.406 138.793 128.904 139.195 127.379 139.487C125.951 139.836 124.377 140.597 123.139 139.964C133.148 137.211 144.459 129.109 149.445 122.209C149.294 121.792 149.069 121.407 148.781 121.071C144.395 125.035 138.772 130.669 131.492 133.468C130.328 133.917 129.09 134.385 127.925 134.835C126.761 135.284 125.733 136.028 124.65 135.569C133.558 131.302 141.347 125.255 147.662 119.53C147.48 119.135 147.188 119.034 146.997 118.612C145.232 118.676 144.477 120.236 143.112 121.594C138.772 125.898 132.784 129.77 125.605 133.257C122.994 134.523 120.364 135.918 117.534 136.321C117.743 135.541 118.699 135.404 119.254 135.119C129.145 129.77 138.517 124.108 144.732 117.502C144.657 116.98 144.451 116.486 144.132 116.068C143.813 115.65 143.393 115.322 142.912 115.116C138.28 118.667 134.286 123.099 129.263 126.834C126.788 128.669 124.049 130.449 121.201 132.201C118.353 133.954 115.642 135.807 112.702 137.422C110.055 138.881 106.379 140.322 104.459 141.909C103.84 140.753 105.369 140.258 105.896 139.872C114.404 134.06 122.473 127.619 130.036 120.603C131.401 119.374 132.702 118.126 134.086 116.933C135.469 115.74 137.106 114.887 138.026 113.318C136.934 113.125 135.378 114.043 134.386 114.584C131.656 116.116 129.09 118.429 126.415 120.401C118.59 126.255 110.455 132.128 104.495 138.551C104.031 137.202 105.869 135.798 106.788 134.761C112.985 127.742 121.511 120.998 129.727 114.501C131.037 113.465 132.739 112.666 133.421 111.116C127.753 113.565 122.657 117.383 117.807 120.649C113.31 123.739 109.318 127.52 105.978 131.853C105.514 130.449 106.888 129.449 107.489 128.439C108.132 127.317 108.882 126.26 109.727 125.283C111.547 123.319 113.449 121.411 115.414 119.484C118.419 116.426 121.703 113.661 125.223 111.226C126.288 110.51 127.953 109.923 128.089 108.372C120.105 111.552 113.185 116.964 108.144 123.971C107.662 122.989 108.653 122.062 109.154 121.291C109.654 120.521 110.127 119.456 110.655 118.612C112.436 116.093 114.497 113.787 116.797 111.74C119.09 109.556 121.483 107.032 124.668 105.729C123.685 104.601 121.028 105.849 119.299 106.867C115.359 109.17 111.929 113.235 109.818 116.098C109.29 115.419 109.991 114.777 110.282 114.263C112.229 111.024 115.987 107.748 118.744 104.674C114.677 106.693 112.375 110.024 110.555 113.134C108.848 116.279 107.479 119.598 106.47 123.035C104.377 129.852 104.941 137.661 99.7362 143.35C110.409 144.69 120.446 150.213 133.631 144.8C137.138 143.369 140.379 141.346 143.212 138.817C146.688 135.67 150.073 132.578 150.664 128.623C148.446 132.522 145.06 135.612 140.992 137.45C140.082 137.918 138.999 138.175 138.053 138.634C136.797 139.248 134.904 140.863 133.749 139.992C134.113 139.542 134.431 139.817 135.023 139.56ZM64.677 138.138C71.8927 134.679 74.3677 129.605 80.2002 125.365C76.7426 127.201 74.5133 130.403 71.0374 132.495C69.2175 133.569 67.2066 134.018 65.0592 135.147C65.2503 134.147 67.0792 133.78 68.0073 133.229C72.3203 130.697 75.4141 126.311 80.4732 123.411C82.293 122.374 84.4132 121.053 84.5132 119.741C81.6652 122.191 75.9601 124.778 72.0929 126.861C72.284 125.944 73.3759 125.485 74.1675 124.888C74.9591 124.292 75.7052 123.604 76.5332 123.007C78.3577 121.792 80.2438 120.675 82.1839 119.658C82.6115 119.41 84.9136 118.199 84.1129 117.383C83.7216 116.988 83.0574 117.722 82.4022 118.089C77.6257 120.804 72.6632 123.171 67.5524 125.173C67.6161 124.255 69.0356 123.907 69.7635 123.494C73.6944 121.246 77.9528 118.071 82.6662 116.382C79.2267 116.529 75.2048 119.025 71.2102 120.97C69.2357 121.888 67.152 122.805 65.2867 123.723C63.4214 124.641 61.5106 125.558 59.7544 125.558C66.1238 122.09 73.0847 118.364 80.2002 115.272C76.6516 115.272 72.193 117.328 68.3167 119.209C60.8918 122.815 52.8481 127.237 45.3231 130.733C44.0674 131.32 42.748 131.844 41.5014 132.339C40.2548 132.834 39.1538 133.587 37.8617 133.614C43.9946 129.577 51.0738 126.09 57.4523 122.035C60.1821 120.31 62.7025 118.364 65.3686 116.612C68.1339 114.769 71.0052 113.093 73.9673 111.593C71.8381 111.657 69.5906 112.859 67.3613 113.942C65.132 115.024 62.6844 116.089 60.546 117.126C52.9035 120.827 45.6459 125.287 38.8809 130.44C39.3905 129.127 40.7735 128.393 41.8472 127.54C49.7453 121.301 58.9628 115.116 68.1075 109.189C67.5342 108.767 66.7608 109.06 66.1147 109.299C63.5215 110.281 60.9555 112.107 58.4077 113.648C55.8599 115.19 53.2667 116.52 50.9464 117.997C48.6261 119.475 46.4423 121.154 44.3586 122.659C42.1202 124.283 39.809 125.576 38.344 127.522C38.4168 126.274 39.6088 125.421 40.4823 124.659C47.5878 118.558 55.0341 112.871 62.7844 107.629C58.6989 108.143 53.9582 110.822 50.2367 113.235C46.9233 115.553 43.936 118.313 41.3558 121.438C40.9737 120.787 41.6834 120.025 42.1202 119.484C44.5497 116.182 47.3908 113.209 50.5733 110.638C51.556 109.877 54.7317 108.216 54.5588 107.363C54.2585 105.84 51.829 107.216 50.4641 107.886C45.7417 110.161 44.0401 112.345 41.8745 115.951C38.3258 121.879 35.9873 129.898 32.6753 135.385C35.1578 136.111 37.5896 137.004 39.9546 138.056C44.9803 139.92 50.3533 140.637 55.6871 140.157C58.7859 140.037 61.8378 139.353 64.6953 138.138H64.677ZM72.3659 73.5226C70.6723 76.6505 69.1918 79.8909 67.9346 83.2214C65.2048 90.2225 64.031 97.2419 60.728 103.28C70.3367 102.692 78.1165 109.088 86.5697 112.657C90.7098 114.41 95.223 115.951 100.455 114.685C105.915 113.382 111.374 109.455 112.766 105.06C112.693 104.959 112.639 105.06 112.666 105.06C110.523 107.224 107.987 108.953 105.196 110.152C103.581 110.666 101.909 110.974 100.218 111.07C98.5078 111.272 96.7881 111.877 95.496 111.29C96.2499 111.034 97.0389 110.897 97.8345 110.886C102.875 109.923 109.891 106.133 113.094 102.38C112.966 101.883 112.926 101.368 112.976 100.857C109.7 103.729 104.941 104.83 101.147 105.729C99.3267 106.161 97.4614 107.115 96.0237 106.39C101.973 105.081 107.584 102.527 112.493 98.8935C112.075 98.132 111.583 97.6273 110.901 97.5905C104.759 100.867 97.9223 102.598 90.9737 102.637C89.1539 102.637 87.2157 103.124 85.678 102.408C92.839 101.958 100.592 99.8386 108.626 96.9024C108.753 95.1682 109.927 93.3606 109.827 91.819C103.594 95.8931 96.0328 96.9574 90.273 97.6548C88.3258 97.8933 86.4696 98.6549 84.5132 98.4989C92.0541 96.747 99.433 94.3496 106.57 91.3327C107.745 90.9324 108.867 90.3869 109.909 89.7086C110.683 88.9379 110.127 86.9559 110.346 86.0383C108.208 87.589 105.241 88.5708 102.557 89.4517C100.501 90.1307 98.617 91.1125 96.6425 91.4704C97.9073 90.7088 100 90.0848 101.693 89.1489C103.995 87.8643 106.351 86.2677 108.808 84.8363C109.445 84.4693 110.546 84.0839 110.437 83.1938C109.454 82.9644 108.562 83.671 107.707 84.038C101.338 86.699 94.3313 90.0573 88.1165 92.0759C81.7471 94.1588 75.5141 96.4986 68.6898 99.4165C68.0073 99.7101 66.9427 100.426 66.2512 99.6276C74.8863 95.1682 84.4041 89.4792 93.8672 84.8822C98.617 82.5791 105.305 80.6246 106.606 77.1287C99.7817 78.9638 92.839 83.047 85.678 86.1851C80.3368 88.5249 75.6689 91.5437 70.8099 94.2506C69.3085 95.0856 67.8072 96.5078 66.0601 96.1867C66.0601 94.9204 67.5797 94.3515 68.526 93.7735C69.7089 93.0853 71.1284 92.6173 72.2567 91.9383C74.0765 90.8739 75.769 89.3599 77.6616 88.0937C79.5542 86.8274 81.4378 85.5979 83.4123 84.4234C87.6525 81.9735 92.284 80.1475 96.6971 77.8536C99.3631 76.4772 102.157 74.6696 103.494 72.6143C94.1857 75.7524 83.9218 81.3404 75.2867 86.6531C73.2848 87.8827 71.738 89.6444 69.4723 90.9381C68.8536 91.2868 67.7526 91.975 67.334 91.2501C66.7426 90.2225 69.9364 88.7727 70.8281 88.2038C77.9619 83.6802 84.4768 78.7895 91.3831 74.0915C94.1129 72.2564 97.1247 70.6323 98.8718 68.2741C91.9291 69.3293 84.8226 74.1741 78.7171 78.3674C75.9123 80.1878 73.245 82.2151 70.7371 84.4326C70.5642 84.5978 68.9628 86.6531 68.1893 85.6713C67.4159 84.6895 70.0092 83.2673 70.4732 82.8543C77.2157 77.0736 86.4241 71.5499 93.112 65.7875C84.9227 67.2923 77.0883 73.9631 71.274 78.1105C71.274 77.1287 72.3022 76.7066 72.8572 76.1194C77.5774 71.2015 83.1221 67.1633 89.2357 64.191C89.1447 63.7138 88.1347 63.8606 87.4887 63.8147C85.1099 63.5777 82.7102 63.9469 80.5096 64.8883C76.6152 66.9803 74.1675 70.357 72.384 73.5226H72.3659ZM135.614 161.793C145.678 157.609 152.848 151.241 156.542 144.203C153.907 147.789 150.681 150.892 147.006 153.379C142.948 156.214 138.59 159.435 133.713 160.931C133.426 161.067 133.11 161.131 132.794 161.118C132.477 161.105 132.168 161.016 131.893 160.857C137.252 158.949 141.975 154.801 146.524 151.801C143.13 154.122 137.78 155.471 134.413 158.049C134.795 156.581 137.352 155.884 138.69 155.113C140.574 153.931 142.396 152.65 144.149 151.278C149.227 147.607 154.431 143.368 157.179 138.863C153.485 144.203 146.26 149.296 138.517 153.645C137.607 154.141 136.57 154.838 135.532 154.728C143.13 149.222 151.238 143.891 156.133 137.422C153.33 138.597 151.583 140.882 149.436 142.864C143.294 148.488 136.57 153.874 126.688 158.169C123.722 159.453 119.936 161.72 116.806 161.747C116.806 160.94 118.126 160.38 118.872 160.013C120.874 159.04 122.793 158.233 124.95 157.068C130.445 154.08 135.627 150.542 140.419 146.506C144.968 142.735 149.363 139.019 152.721 134.816C150.319 136.092 148.599 138.276 146.351 139.973C144.104 141.671 141.611 143.249 139.218 145.02C134.759 148.314 130.064 151.856 124.186 154.746C122.748 155.453 120.628 155.957 119.636 157.178C119.218 156.15 120.719 155.59 121.52 155.049C124.249 153.214 126.979 150.901 129.709 149.14C126.288 149.387 122.575 152.572 119.7 153.994C119.7 153.003 120.855 152.553 121.629 151.957C122.361 151.274 123.153 150.66 123.995 150.122C117.198 152.104 116.715 158.38 113.294 162.371C119.918 163.546 127.125 165.335 135.632 161.793H135.614ZM94.5952 174.272C99.2812 174.749 105.059 175.346 110.51 174.217C113.276 173.775 115.897 172.671 118.153 170.996C114.928 172.52 111.422 173.345 107.862 173.419C105.43 173.617 102.983 173.496 100.582 173.061C104.723 172.602 110.446 172.409 115.469 170.308C116.843 169.739 119.108 168.803 119.454 167.555C118.735 166.702 117.634 167.647 116.67 168.051C112.293 169.87 107.633 170.895 102.903 171.079C101.511 171.079 99.9273 171.538 98.8718 170.721C104.804 170.538 111.538 168.042 118.117 166.014C117.734 165.307 116.715 165.372 116.078 165.298C113.794 165.032 111.292 165.647 108.571 166.262C99.9364 168.216 91.2831 170.005 83.4669 169.308C82.6934 169.244 81.8654 169.17 81.0828 169.124C80.4641 169.124 79.445 169.418 79.0446 168.657C86.9882 168.501 96.8972 167.739 105.878 164.16C97.8071 166.39 90.5369 167.427 83.4123 166.418C82.3295 166.262 81.1375 165.83 80.4459 166.023C78.5715 166.574 77.2794 168.464 75.6324 169.097C75.687 169.583 76.2603 169.418 76.5424 169.501C82.4477 171.18 88.0802 173.602 94.6134 174.272H94.5952ZM52.2203 167.188C57.4614 169.941 63.0847 173.51 68.9446 174.667C69.2448 174.777 69.3176 174.446 69.4814 174.281C69.8636 174.281 70.4732 174.639 71.0374 174.74C71.4468 174.813 72.4205 174.878 72.2021 174.667C68.5624 174.07 64.7408 172.272 61.1648 170.996C59.9819 170.583 58.5988 170.382 57.8345 169.326C58.6492 169.271 59.4649 169.419 60.2094 169.758C65.8327 171.189 71.5833 173.355 77.9255 172.978C76.3252 172.195 74.6307 171.624 72.8845 171.281C69.3989 170.286 65.8515 169.525 62.2657 169.005C60.4459 168.785 58.5624 168.73 56.9245 167.941C57.4705 167.436 58.2348 167.803 58.7444 167.776C61.2704 167.549 63.8066 167.457 66.3422 167.5C68.7808 167.62 71.3013 168.244 73.8854 167.372C73.1211 166.454 71.7653 166.317 70.637 166.142C67.0222 165.466 63.3097 165.525 59.718 166.317C60.2093 165.216 61.7107 165.399 62.7025 165.234C65.86 164.702 69.3449 163.803 72.011 164.738C67.1156 161.298 59.5087 162.389 51.9291 166.693C51.4559 166.987 51.7562 166.335 51.3923 166.583C51.5106 166.941 51.9837 167.06 52.2203 167.188ZM54.0401 161.334C47.1065 160.472 41.4559 155.93 35.5415 152.159C36.5697 152.293 37.5585 152.643 38.4441 153.186C44.1402 155.829 49.7908 159.334 56.6425 158.958C51.7208 158.421 46.9591 156.879 42.6479 154.425C44.6315 154.691 46.5424 155.755 48.6989 156.26C50.8968 156.655 53.1272 156.836 55.3595 156.801C53.294 155.572 50.5642 155.609 48.1893 154.966C43.0028 153.489 38.1166 150.828 32.9027 148.745C32.0656 148.406 30.9555 148.497 30.3368 147.672C31.4014 147.378 32.4204 147.974 33.4941 148.213C39.7453 149.608 45.9146 151.406 52.3568 153.067C53.6125 153.397 55.3777 154.095 56.1966 153.067C55.4414 152.333 54.2403 152.305 53.2485 151.938C50.2458 150.837 46.7517 150.305 43.6489 149.287C44.031 148.782 44.7316 149.213 45.2048 149.287C46.9485 149.35 48.6867 149.522 50.4095 149.8C51.5105 150.067 52.657 150.397 53.7489 150.718C54.8408 151.039 55.9691 151.837 57.0974 151.406C56.7153 149.69 54.5223 149.571 53.0483 149.241C50.6279 148.644 48.344 147.626 45.9783 146.827C48.8144 147.084 51.6337 147.503 54.4223 148.085C55.3049 148.375 56.2241 148.535 57.152 148.562C56.4279 147.641 55.4346 146.973 54.3131 146.653C52.1001 146.012 49.8478 145.519 47.5706 145.176C45.2685 144.717 43.021 144.378 40.728 143.992C45.4204 143.498 50.1633 143.973 54.668 145.387C54.95 145.479 55.3868 145.745 55.6871 145.497C53.0756 143.781 48.8718 143.12 45.6143 142.597C42.3291 142.104 38.9832 142.203 35.7326 142.891C38.2311 141.848 40.8924 141.258 43.5943 141.148C38.7353 138.716 30.9009 144.102 26.0238 147.571C35.1411 152.819 43.0392 161.49 54.0401 161.334ZM29.7726 140.836C31.3923 140.964 33.2849 141.129 33.7398 139.276C32.6934 139.065 31.2922 139.909 30.3822 139.331C31.0286 139.037 31.7221 138.863 32.4296 138.817C33.1029 138.679 34.1038 138.716 33.7581 137.808C31.3468 138.413 28.8809 139.175 26.8335 138.725C27.9072 138.083 30.2821 137.688 31.92 136.982C31.3286 136.817 30.6552 136.881 30.2822 136.064C28.0287 136.931 25.6204 137.312 23.2121 137.184C25.4778 135.899 31.1011 135.633 31.3468 132.99C29.2721 134.321 26.4878 134.743 24.6952 135.248C26.9246 133.981 30.6006 132.495 32.3567 130.559C31.4468 129.944 30.4459 130.917 29.6725 131.247C25.9418 132.862 21.6562 133.468 18.2349 134.358C17.698 134.504 17.1338 135.202 16.6334 134.532C16.9337 133.614 20.5824 132.165 21.7289 132.064C24.668 130.027 29.0083 128.292 32.0838 126.43C32.5751 126.127 33.2121 125.815 33.3121 125.219C29.2539 126.255 23.94 128.981 20.1366 131.247C19.5906 131.577 18.5806 132.275 18.0347 131.66C18.5351 130.742 19.4086 130.485 20.2549 129.981C23.5397 127.99 26.4696 124.769 30.1911 122.961C30.8463 122.649 31.6379 122.576 32.102 121.915C28.1075 121.915 22.7298 125.815 20.5187 128.513C20.2093 127.476 21.1648 126.678 21.7198 125.971C23.674 123.43 26.104 121.301 28.8718 119.704C27.289 119.651 25.7305 120.107 24.4223 121.007C19.2995 124.145 18.7262 130.733 14.7771 134.459C19.1629 136.385 24.5042 140.45 29.7635 140.836H29.7726ZM3.55787 133.22C5.47781 135.138 7.53421 136.642 9.46324 138.514C9.62703 138.936 9.5906 138.432 9.89998 138.423C11.82 140.092 14.0077 141.42 16.3695 142.35C18.5169 143.267 20.9191 144.543 23.5942 143.836C20.8099 142.056 17.4796 141.194 14.5588 139.579C12.3477 138.349 10.3095 136.918 8.09836 135.651C7.42502 135.266 6.37861 134.945 6.22394 134C8.78993 134.456 11.272 135.304 13.5851 136.514C13.8399 136.514 13.84 136.514 13.6307 136.367C11.3668 135.054 9.03056 133.871 6.63341 132.825C7.44324 132.183 8.65341 132.467 9.74531 132.532C10.3617 132.571 10.972 132.679 11.5652 132.853C12.1202 133.046 12.7481 133.77 13.1757 132.926C12.4023 131.926 10.6552 132.532 10.2821 131.165C11.192 130.66 12.375 131.376 13.3941 131.366C13.3122 130.926 12.6661 130.715 12.3295 130.66C9.19082 130.404 6.06784 131.315 3.54877 133.22H3.55787ZM9.47235 128.164C12.1111 128.256 15.3413 128.632 17.5888 125.687C14.3677 126.916 10.9373 128.715 8.60791 127.366C9.44504 126.76 11.2103 126.879 12.8117 126.054C14.1857 125.347 15.2503 124.127 16.5515 123.512C12.8026 125.164 9.27214 126.265 5.63246 127.614C6.3968 128.155 7.96187 128.109 9.45413 128.164H9.47235ZM6.38771 126.246C9.8181 124.338 12.9209 122.31 16.2603 120.365C12.9027 120.869 6.72438 123.301 6.3786 126.246H6.38771ZM4.20389 96.8841C2.73892 99.4533 2.62974 102.518 2.56604 105.592C3.52145 105.161 4.0583 103.867 4.88632 103.124C2.85721 101.288 4.38586 98.8385 4.19478 96.8749L4.20389 96.8841ZM3.78535 111.694C4.57699 110.684 4.85902 108.785 5.50506 107.454C4.64973 108.427 4.19481 110.271 3.77626 111.684L3.78535 111.694ZM4.25848 112.437C3.9946 112.657 3.85811 112.51 3.63063 112.62C3.45775 114.841 3.26668 117.043 2.8936 119.19C5.63833 119.222 8.33482 118.461 10.6643 116.997C10.0911 116.676 10.355 115.768 10.546 115.235C9.81247 115.85 9.02344 116.394 8.18933 116.86C7.33401 117.383 6.56061 118.603 5.77809 118.153C5.91456 117.181 6.86088 116.832 7.37044 116.162C8.7187 114.162 9.89087 112.046 10.8736 109.84C8.90536 113.054 6.53869 116.002 3.83084 118.612C3.33949 117.924 4.04922 117.162 4.34039 116.658C6.00555 113.841 6.89723 110.4 8.23482 107.344C8.48147 106.764 8.78638 106.211 9.14473 105.693C9.43591 105.261 10.1821 104.702 9.89998 103.986C6.62428 105.977 5.81448 109.565 4.24943 112.428L4.25848 112.437ZM10.2185 84.4142C9.40866 83.1113 10.3276 81.5238 10.6279 80.2025C11.5446 75.8253 13.2936 71.6686 15.7781 67.9622C10.8554 71.9261 9.68159 77.6425 8.87176 83.359C8.43254 86.2467 8.21051 89.1637 8.20755 92.0851C8.1931 94.9125 7.74179 97.7203 6.86993 100.408C8.41438 100.06 9.93426 99.6093 11.4195 99.0587C13.0612 98.3893 14.5619 97.4116 15.8418 96.1775C16.2231 95.5335 16.5285 94.8468 16.7517 94.1313C18.5558 89.7457 21.3878 85.8667 25.0047 82.8268C25.678 82.2855 26.5788 81.9919 27.3158 81.3404C28.7717 80.0283 29.4814 77.9637 30.8463 76.3396C28.1803 78.9547 24.395 81.9001 21.4196 84.6803C21.4196 83.9004 22.193 83.5058 22.6662 82.9828C25.7963 79.5419 30.4459 75.6422 32.0292 71.7426C24.0856 77.1746 20.6006 84.1022 16.415 90.8923C15.0575 93.2644 13.369 95.4275 11.4014 97.3153C11.4014 96.5904 12.0656 96.1683 12.4023 95.6178C16.597 88.6993 20.0911 81.01 26.1966 74.6788C27.8436 72.9629 29.9546 71.4948 30.8008 69.4028C29.2904 71.0544 26.2512 72.8895 24.8318 74.8531C24.9683 73.7612 26.3422 72.6326 27.2157 71.504C28.0839 70.3585 29.0102 69.259 29.991 68.2099C28.3349 68.8798 27.3158 70.4304 26.1966 71.6324C22.8441 75.1819 19.8367 79.0473 17.2158 83.1755C13.8673 88.5066 11.6834 94.48 7.86177 99.5175C7.40681 98.7192 8.19844 97.9668 8.53511 97.3703C11.1739 92.6265 12.9027 87.2128 15.4687 82.313C16.97 79.4777 18.8718 76.8076 20.6097 74.1007C21.5197 72.7427 22.4296 71.348 23.3941 70.0726C24.3586 68.7971 25.9782 67.797 26.0328 65.9894C21.9913 69.7896 18.5486 74.1896 15.8236 79.0373C13.0938 83.6251 11.6106 88.6626 8.65339 92.8651C8.46231 91.6906 9.36311 90.8556 9.77258 89.8921C10.6279 87.8551 11.1375 85.6162 11.9564 83.5884C13.6277 79.4271 15.6268 75.4076 17.9346 71.5682C19.0902 69.6688 20.6188 67.9988 21.4742 65.8242C14.9774 71.0544 12.1384 77.5875 10.2185 84.4142ZM30.2367 41.0956C33.3031 38.0126 36.1147 34.1312 39.9273 31.0023C36.1888 33.841 32.9209 37.2603 30.2457 41.1324L30.2367 41.0956ZM37.2885 44.4906C32.4933 48.5004 28.7899 53.1433 24.1038 57.0981C23.6852 56.2723 24.6224 55.5474 25.0137 55.0519C28.7626 50.8127 32.2931 46.0781 36.597 41.8756C40.2367 38.3338 43.94 34.6084 48.8718 31.4152C50.2913 30.4977 52.5115 29.7544 52.8663 27.9009C48.3167 29.0754 45.0137 32.0667 41.8654 34.7002C39.8181 36.416 37.88 38.1869 36.142 39.912C32.5024 43.4997 29.4723 47.3168 26.1329 50.6017C26.5421 49.4291 27.1587 48.341 27.9528 47.3902C28.6898 46.3534 29.5633 45.3624 30.3822 44.3897C35.5177 38.0143 41.4618 32.3472 48.0619 27.5339C39.3358 31.5437 33.9309 37.4437 29.3358 43.1877C28.8991 43.5272 28.8718 43.0317 28.5988 43.4263C25.4869 49.2345 22.5752 55.5474 20.1093 61.3006C25.1138 59.3645 29.9273 60.0894 34.5588 57.9423C36.0054 57.3625 37.3139 56.4807 38.3986 55.3547C38.9312 54.4798 39.3849 53.5586 39.7544 52.602C41.1798 49.8011 43.0763 47.2708 45.3595 45.1238C48.1712 42.6647 52.557 41.637 54.7499 38.9944C50.8008 41.4351 45.0501 43.9493 41.5924 46.8396C41.2831 45.9863 42.4113 45.5 42.93 45.0871C44.7498 43.6373 46.8699 42.0866 49.1265 40.6185C52.0838 38.7008 55.496 37.0308 56.233 34.2506C53.2212 37.407 47.8981 39.756 43.8945 42.5546C44.4496 41.27 45.9509 40.7194 47.0974 39.9028C50.3094 37.4896 54.1766 34.7368 56.2694 31.8006C49.4749 35.2821 43.1076 39.5535 37.2976 44.5274L37.2885 44.4906ZM90.0638 6.33798C87.2339 6.14529 83.4214 7.70521 80.0547 8.73289C74.2403 10.568 67.2521 12.0178 63.3394 16.4772C62.9664 15.2477 64.8499 14.4218 66.1602 13.5318C71.6478 9.85045 77.5605 6.85842 83.7671 4.62212C79.9763 5.36205 76.2821 6.53813 72.7571 8.12726C65.6002 11.1017 59.773 16.6188 56.3786 23.6343C60.7462 21.3678 65.3868 23.047 69.6543 21.0926C70.939 20.3948 72.1845 19.6259 73.385 18.7894C75.6304 17.3288 77.9851 16.0465 80.4277 14.954C78.2348 15.1742 75.8053 16.0734 73.4942 16.6148C78.4805 13.2748 84.859 12.6693 89.8727 10.7332C89.4996 10.2193 88.8809 10.7332 88.4623 10.8157C80.7825 12.3753 73.2686 14.6736 66.0237 17.6792C64.0765 18.505 61.7016 19.4409 60.1821 20.8815C59.5269 19.8906 60.91 19.4226 61.5742 18.9913C67.2213 15.2952 73.2576 12.2424 79.5724 9.88904C82.566 8.85218 85.5233 8.59526 88.4532 8.05389C89.3727 7.80016 90.239 7.38044 91.0101 6.81514C90.9373 6.42058 90.3003 6.42059 90.091 6.42059L90.0638 6.33798ZM86.8426 13.2565C87.1645 13.3286 87.499 13.3194 87.8165 13.2297C88.134 13.1401 88.4245 12.9728 88.6625 12.7427C88.047 12.8602 87.446 13.0448 86.87 13.2932L86.8426 13.2565ZM88.7899 19.6153C80.5096 21.9643 70.0365 27.8734 64.8863 33.0394C64.7862 31.9016 66.0146 31.2042 66.8244 30.516C73.0483 25.3868 80.6461 19.2758 89.9637 16.2478C87.2675 15.8084 84.5027 16.1752 82.011 17.303C68.8354 22.6065 63.9127 32.3237 58.3531 40.49C63.5669 42.4261 69.6907 44.509 75.9055 44.6375C76.795 44.7275 77.6911 44.7275 78.5806 44.6375C80.7735 44.0594 83.7489 42.1508 86.0783 40.8754C88.1147 39.8657 89.8389 38.3142 91.0647 36.3885C87.9788 38.5462 84.6102 40.2602 81.0556 41.481C79.4268 42.0041 78.4259 42.3986 77.2612 41.8664C78.4337 41.2262 79.6501 40.6712 80.9009 40.2056C84.7639 38.3405 88.4054 36.0412 91.7562 33.3513C88.5533 35.9756 82.8208 37.4712 78.8263 38.6549C77.7162 38.9761 76.6152 39.7652 75.5597 39.389C80.9335 37.3676 86.1115 34.8521 91.0283 31.874C86.233 33.7092 80.3913 36.0398 75.0774 37.3795C73.5815 37.8939 72.0237 38.2025 70.446 38.297C76.4787 36.0398 83.294 33.544 89.7817 30.7454C89.4307 30.2393 89.0111 29.7852 88.5351 29.3966C81.8851 31.2667 75.365 33.5779 69.0174 36.3151C66.7699 37.2327 64.5861 38.4439 62.3477 39.3064C61.7289 39.545 60.7826 40.0129 60.3095 39.3064C60.3095 38.3246 62.0747 38.0768 62.8117 37.719C65.6234 36.3701 68.8809 34.2965 72.0383 32.7641C75.496 31.0849 78.9537 30.4335 82.4205 28.4515C85.0545 26.9271 87.5975 25.2482 90.0365 23.4232C83.5578 25.9007 74.8317 28.1946 68.7262 32.6631C66.7062 34.1496 65.0046 36.3885 62.5388 36.3977C62.4842 35.6636 63.385 35.3425 63.8308 35.0397C67.6161 32.4613 71.4014 29.626 75.8235 27.0293C79.516 24.6795 83.4636 22.7646 87.5888 21.322C89.5269 20.7164 91.8199 21.0192 92.293 19.0372C91.2284 18.7803 89.9636 19.3308 88.8171 19.652L88.7899 19.6153ZM109.29 2.60351C103.94 2.99807 97.4614 5.83332 92.9755 9.66877C94.3901 10.2864 95.8467 10.8016 97.334 11.2103C98.5442 11.6324 100.646 12.7793 101.993 12.3573C103.13 11.9994 103.758 10.779 105.232 10.5221C102.828 10.2481 100.395 10.3596 98.0256 10.8525C98.153 9.73304 99.8454 9.86147 100.573 9.6229C101.847 9.11104 103.175 8.75076 104.531 8.54936C107.998 8.24656 111.811 8.41171 115.45 7.84281H115.669C115.669 7.78776 115.596 7.73271 115.514 7.78776H115.45C111.492 6.87019 106.351 7.21886 101.501 8.00797C99.872 8.42152 98.2035 8.65839 96.5242 8.71452C98.162 7.67766 100.255 7.39321 102.147 6.87937C107.862 5.21857 113.676 4.12666 118.526 5.16352C116.36 2.7503 113.112 2.36492 109.318 2.64019L109.29 2.60351ZM138.189 13.0638C134.288 12.1374 130.295 11.6633 126.288 11.6508C125.032 11.6508 123.467 11.9077 122.448 10.9534C123.412 10.0358 124.923 10.201 126.087 10.1735C129.372 10.1001 133.521 10.1092 136.488 11.4672C137.325 11.8434 137.962 12.6601 138.799 13.0179C139.381 13.2749 140.109 13.2198 140.692 13.44C142.191 14.1035 143.586 14.9845 144.832 16.0551C138.408 7.14547 126.879 5.15432 114.613 12.9445C121.347 22.8268 128.753 30.7362 139.127 30.149C136.041 29.8094 133.03 28.9697 130.209 27.6624C127.361 26.3228 125.096 24.1298 122.457 22.0469C125.087 23.4232 127.37 25.0932 130.082 26.1392C132.822 27.0773 135.681 27.6149 138.572 27.7358C132.502 26.0566 126.333 22.8084 120.555 19.0739C119.8 18.5784 118.681 18.0095 118.59 16.9819C122.602 18.8812 126.488 20.9825 130.573 22.6066C134.659 24.2307 139.117 24.4417 143.476 25.3593C137.2 22.1066 130.764 19.1758 124.195 16.5781C123.103 16.125 121.988 15.7299 120.855 15.3945C119.727 15.0917 118.408 15.11 117.516 14.2108C118.253 13.5685 119.4 13.9906 120.246 14.1098C126.731 14.9449 133.094 16.559 139.199 18.9179C136.601 17.0376 133.715 15.5993 130.655 14.6604C132.019 14.6821 133.375 14.8857 134.686 15.266C138.84 16.0162 142.695 17.9488 145.796 20.8357C144.031 16.991 140.828 15.266 138.217 13.1005L138.189 13.0638ZM161.756 31.0849C159.274 28.4393 157.277 25.3697 155.86 22.0193C155.755 23.7296 156.097 25.4377 156.85 26.9735C157.604 28.5093 158.743 29.8192 160.155 30.7729C160.655 31.1124 161.238 31.4061 161.702 31.6905C162.166 31.975 162.612 32.7916 163.239 32.6081C163.03 32.1126 162.32 31.6722 161.783 31.1216L161.756 31.0849ZM165.869 47.5278C158.289 50.5283 151.083 53.1892 143.558 55.6759C141.529 56.3457 139.381 56.4099 137.498 57.1531C136.033 57.7312 134.659 58.8598 133.003 58.6029C133.54 57.4835 135.287 56.6026 136.743 55.8502C142.202 52.8681 148.062 50.5008 153.949 47.592C157.498 45.8578 161.547 44.8393 163.958 42.4903C162.302 41.4718 160.164 42.16 158.207 42.8482C156.251 43.5364 153.949 44.6283 151.747 45.5C146.369 47.6104 140.965 50.6384 136.169 52.3268C135.523 52.547 134.677 53.1892 134.067 52.7304C134.067 51.8129 135.114 51.3174 135.887 50.8953C139.127 49.0601 142.657 47.3626 145.896 45.7936C150.282 43.674 154.759 41.0589 158.844 39.2697C159.682 38.9118 160.664 38.7742 161.01 37.7373C157.097 38.0493 152.721 40.3432 148.271 42.3252C144.968 43.8025 141.647 45.2155 138.417 46.9773C137.507 47.482 136.369 48.2986 135.341 47.8949C135.341 46.9039 136.615 46.6286 137.307 46.2065C142.766 42.8757 149.927 38.866 155.76 36.0398C156.997 35.4342 159.318 34.847 158.954 33.6358C158.526 32.1768 155.733 33.4981 154.404 34.0028C149.553 35.9651 144.892 38.3763 140.482 41.2057C139.663 41.7104 138.763 42.6096 137.844 42.2426C137.616 41.4443 138.644 40.9763 139.136 40.6368C142.238 38.5081 145.896 36.1683 149.309 34.1221C150.628 33.333 152.22 32.654 152.657 31.2776C148.107 31.3969 143.858 35.4067 140.4 37.4713C139.9 36.5537 141.137 35.8563 141.693 35.3792C143.881 33.5074 146.253 31.8656 148.772 30.4793C140.246 31.5987 137.161 39.967 135.123 45.3899C133.317 50.1553 132.036 55.1062 131.301 60.1536C134.886 62.6494 138.581 65.8151 142.912 68.0356C146.67 69.9717 151.965 71.6325 156.661 69.7606C160.715 67.9916 164.305 65.2926 167.143 61.8787C164.231 64.402 157.889 67.7419 154.067 67.6135C159.945 65.2461 167.78 61.7502 168.872 56.8962C165.696 59.5297 160.864 62.888 156.251 64.3561C156.515 63.4385 157.862 63.0715 158.662 62.5852C162.32 60.4454 165.743 57.9202 168.872 55.0519C169.227 54.4463 168.926 53.593 169.045 52.8956C164.031 55.5199 158.626 61.0253 152.411 62.3099C151.738 62.4475 151.083 62.365 150.455 62.5301C146.051 63.6496 142.111 65.5673 138.626 63.7688C139.254 63.4752 140.046 63.7688 140.764 63.7046C142.047 63.5762 143.658 63.2917 145.314 63.0807C147.024 63.0005 148.722 62.7484 150.382 62.3283C151.108 61.9898 151.813 61.6067 152.493 61.1813C158.167 58.4757 163.577 55.2409 168.653 51.5193C168.52 50.9423 168.331 50.3799 168.089 49.8401C164.213 52.8864 157.898 55.2354 153.531 56.8779C153.913 55.9603 155.35 55.7676 156.187 55.3547C159.973 53.5196 163.549 50.5466 167.188 48.5555C166.87 47.8857 166.333 47.8398 165.869 47.5278ZM219.008 21.7441C215.369 23.0837 212.684 25.607 209.718 27.8367C201.947 33.6817 190.4 39.5541 181.201 41.1874C178.126 41.7288 175.005 42.261 172.812 42.105C172.558 42.1295 172.301 42.0914 172.065 41.9939C171.829 41.8964 171.62 41.7424 171.456 41.5453C171.793 40.8938 172.848 41.6095 173.603 41.2333C171.565 40.6002 169.436 40.2423 167.807 38.4806C169.865 41.9649 171.182 45.8426 171.674 49.8676C171.956 51.8863 171.911 53.7122 172.029 55.6667C172.102 57.0522 172.366 58.4194 172.302 59.7957C172.184 62.5485 172.411 66.3472 175.287 68.5769C174.424 66.6701 173.862 64.6392 173.622 62.5576C173.622 61.6401 173.995 60.7225 174.013 59.5755C174.013 57.4926 172.848 55.63 172.985 53.3727C173.831 53.5379 173.813 54.7124 173.976 55.4556C174.14 56.1989 174.34 57.1623 174.522 57.8689C174.701 57.5142 174.902 57.171 175.123 56.8412C174.577 54.5106 174.076 51.9872 173.531 49.5006C173.385 48.8491 172.884 47.8306 173.531 47.2984C174.977 49.4547 175.077 52.5561 176.178 55.1436C176.609 54.7146 176.993 54.241 177.325 53.7306C176.843 52.1891 176.515 50.6108 176.033 49.0051C175.66 47.7755 175.032 46.4818 175.405 45.4082C176.315 45.8487 176.661 47.5186 177.107 48.7298L178.508 52.4001C178.945 52.1432 179.145 51.8037 179.545 51.5284C179.108 50.4348 178.734 49.3166 178.426 48.1793C178.007 47.1424 177.125 46.1148 177.452 45.1238C178.954 45.812 179.682 48.7115 180.883 50.2805C181.237 50.0779 181.567 49.8347 181.865 49.5557C181.338 47.7205 179.818 45.5459 180.191 44.0502C181.447 44.8393 182.075 47.4086 183.139 48.7115L184.049 48.2802C183.776 46.4451 182.42 44.197 182.484 42.472C183.112 42.472 183.267 43.3895 183.531 43.9034C184.086 45.0504 184.632 46.3992 185.132 47.5095L186.506 46.8488C186.406 45.7477 185.596 44.3806 185.532 43.2978C186.606 43.3988 186.879 45.2064 187.434 46.2707L189.691 45.1788C189.036 44.4172 187.689 42.16 188.49 41.3801C189.399 41.8389 190.446 43.7566 190.619 44.8485C191.031 44.6037 191.48 44.4271 191.947 44.3255C191.947 43.0684 190.855 41.426 190.937 40.1964C192.257 40.0863 192.666 42.4078 193.321 43.6649C194.049 43.2887 194.668 43.2244 195.423 42.7473C195.132 41.5728 193.794 39.9946 194.741 39.2972C195.487 39.912 195.951 41.2883 196.561 42.3252C197.061 42.2117 197.551 42.0551 198.026 41.8572C197.962 40.6001 196.442 38.8292 196.915 37.7648C198.016 38.0493 198.389 40.4074 199.245 41.3801C199.686 41.3213 200.116 41.1944 200.519 41.0039C200.355 39.5541 198.945 37.6547 199.272 36.416C200.473 36.939 200.983 39.4899 201.938 40.7194C202.462 40.5347 203.001 40.3965 203.549 40.3065C203.303 38.5723 201.902 36.4344 202.02 34.8011C203.376 35.3425 204.231 38.3613 204.959 39.9487C205.352 39.8014 205.768 39.7238 206.187 39.7193C206.388 37.8841 204.732 35.4251 205.105 33.6725C205.833 33.8835 206.124 34.9571 206.442 35.7003C206.943 36.8931 207.352 38.3429 207.844 39.3706C208.553 39.1137 209.136 39.2605 209.845 39.0036C209.597 37.6411 209.275 36.2933 208.881 34.9662C208.508 33.6541 207.862 32.2135 208.117 31.0757C208.89 31.4061 209.19 32.4888 209.545 33.3054C210.319 35.1209 210.957 36.9918 211.456 38.9027C211.911 38.6733 212.202 38.9026 212.675 38.6824C212.339 36.26 211.056 33.4982 210.601 31.0391C211.374 30.8923 211.638 31.9566 211.893 32.4797C212.702 34.3148 213.467 36.8106 214.231 38.6549C214.784 38.6844 215.339 38.6598 215.887 38.5815C214.852 35.6743 214.034 32.6931 213.44 29.6627C214.713 30.2132 214.968 32.186 215.623 33.7184C216.333 35.4067 217.243 37.0583 217.443 38.554C217.844 38.4255 218.135 38.5999 218.562 38.3796C218.104 36.9122 217.754 35.4124 217.516 33.8927C217.143 32.3787 216.251 30.8922 216.315 29.3599C217.352 29.8554 217.68 31.3235 218.135 32.4797C218.999 34.2673 219.687 36.1357 220.191 38.0585C220.473 37.8566 220.619 38.0584 220.919 37.8199C220.845 36.2206 220.576 34.6367 220.118 33.1036C219.663 31.452 218.79 29.782 218.881 28.2221C220.318 30.5986 221.374 34.2506 222.348 37.0125C225.596 35.3608 225.987 30.5895 224.45 26.7356C223.339 23.6985 221.774 20.7255 219.008 21.7441ZM224.113 22.0652C223.985 21.689 223.867 22.0652 224.113 22.212C228.053 27.9468 228.844 35.5443 223.767 38.7283C220.51 40.747 216.706 40.5635 213.221 40.6736C209.689 40.8057 206.185 41.3633 202.784 42.3344C203.749 42.5638 204.659 42.0958 205.614 41.9306C210.091 41.1507 214.713 41.3067 219.263 41.1599C221.201 41.0956 223.74 41.0406 225.369 39.7835C226.533 38.6769 227.322 37.2292 227.625 35.6452C228.262 31.9291 227.106 25.4877 224.113 22.0652Z" fill="#7A570F"/>
</g>
<defs>
<clipPath id="clip0_1409_217">
<rect width="230" height="179" fill="white" transform="matrix(-1 0 0 1 230 0)"/>
</clipPath>
</defs>
</svg>
