<svg width="180" height="105" viewBox="0 0 180 105" fill="none" xmlns="http://www.w3.org/2000/svg">
<path d="M54.6062 40.1039C54.848 39.5858 55.0297 39.0416 55.1478 38.4822C55.2256 38.1705 55.2516 37.8482 55.2248 37.5282C55.1571 36.9773 55.1047 36.5834 55.0709 36.3403C56.068 36.0972 57.1666 35.7833 58.3699 35.3863C58.4714 35.3555 58.5822 35.3124 58.6776 35.2755C58.6468 35.3524 58.6007 35.4417 58.5699 35.5155C58.2361 36.3552 57.9606 37.2169 57.7452 38.0944C57.4713 39.1592 57.2466 40.1378 57.0774 41.0302C56.8477 42.1089 57.0405 43.2346 57.6159 44.1754C58.1779 45.0675 58.9963 45.769 59.964 46.188C59.9711 46.1869 59.9783 46.1876 59.9852 46.1898C59.992 46.1921 59.9982 46.1959 60.0032 46.201C60.0083 46.2061 60.0122 46.2123 60.0144 46.2191C60.0167 46.2259 60.0173 46.2332 60.0163 46.2403C60.4615 46.3121 60.9682 46.1315 61.5365 45.6987C62.166 45.213 62.7473 44.6679 63.2722 44.0707C63.8651 43.4029 64.4239 42.7055 64.9463 41.9812L65.0448 41.8427C64.974 42.2612 64.8724 42.6551 64.8201 43.089V43.4552C64.8201 43.7322 64.8724 43.9045 64.974 43.9722C65.0755 44.0399 65.2817 44.3507 65.6725 44.797C65.9903 45.1769 66.3627 45.5077 66.7773 45.7787C66.8644 45.8682 66.9692 45.9384 67.0851 45.9848L67.2913 46.0864C67.4847 46.0889 67.6769 46.0544 67.8575 45.9848C68.2678 45.8125 68.8525 45.313 69.6116 44.4862C70.3707 43.6594 71.3504 42.1822 72.5505 40.0547C72.2881 41.0531 72.0989 42.0693 71.9843 43.0952V43.4552C71.9843 43.7322 72.0366 43.9045 72.1382 43.9722C72.3522 44.1989 72.5942 44.3975 72.8583 44.5631L73.9939 45.3632C74.1272 45.4154 74.2669 45.4495 74.4093 45.4648C74.6661 45.487 74.9221 45.4148 75.1294 45.2617L76.3388 44.3077C76.8374 43.9138 77.3882 43.4552 77.9914 42.9413C78.5946 42.4274 79.2224 41.8427 79.8378 41.1872C80.0748 40.941 80.3087 40.6548 80.5426 40.3932C80.5025 40.6609 80.4502 40.9348 80.4287 41.1872V41.6519C80.4283 41.9982 80.4634 42.3436 80.5333 42.6828C80.6041 42.9598 80.678 43.2429 80.7641 43.5322C80.8443 43.8151 80.9958 44.0726 81.2042 44.28V44.3323C81.2719 44.4 81.3642 44.5046 81.4873 44.64C81.6382 44.8063 81.8018 44.9607 81.9766 45.1016C82.4819 45.6518 83.096 46.0909 83.78 46.3911H83.8908C84.0419 46.4329 84.1988 46.4505 84.3555 46.4434C84.6591 46.4186 84.956 46.3405 85.2325 46.2126C85.7304 45.996 86.2127 45.7451 86.6758 45.4617C87.4208 45.0065 88.1278 44.4919 88.79 43.923C89.4413 43.3748 90.0522 42.7804 90.618 42.1443L92.1567 40.4394C92.0005 41.0073 91.8893 41.5866 91.8243 42.172C91.7904 42.4973 91.7904 42.8252 91.8243 43.1506C91.8616 43.4382 91.9223 43.7222 92.0059 43.9999C92.0735 44.2614 92.2058 44.5016 92.3906 44.6985C92.6148 44.9955 92.8754 45.2632 93.1661 45.4956C93.6349 45.8864 94.1799 46.1756 94.7663 46.3449C94.7971 46.3449 94.8156 46.3449 94.8156 46.3726C94.8156 46.4003 94.8309 46.3972 94.8648 46.3972C95.0652 46.3862 95.2647 46.3616 95.4618 46.3234C95.9282 46.1939 96.3716 45.9925 96.7759 45.7264C97.2196 45.4755 97.649 45.2001 98.0622 44.9016C98.3147 44.7279 98.5562 44.5388 98.7854 44.3354C98.949 44.2361 99.1044 44.1239 99.2501 43.9999C99.3855 43.8799 99.5271 43.7537 99.6625 43.6122C100.276 43.0782 100.815 42.4633 101.263 41.7842C101.605 41.2446 101.913 40.6845 102.186 40.107C102.428 39.5888 102.609 39.0447 102.728 38.4852C102.802 38.1731 102.828 37.8513 102.804 37.5312C102.737 36.9804 102.684 36.5865 102.648 36.3434C103.645 36.1002 104.746 35.7863 105.95 35.3894C107.153 34.9924 108.476 34.5061 109.919 33.9184L109.458 33.5614C108.734 33.8467 107.993 34.0872 107.239 34.2815C106.55 34.4538 105.777 34.6323 104.919 34.8231C104.034 35.0178 103.139 35.1637 102.238 35.2601C102.448 35.0843 102.647 34.8951 102.832 34.6939C103.027 34.4778 103.191 34.2354 103.318 33.9738C103.51 33.6939 103.585 33.3508 103.528 33.0167C103.522 32.6666 103.395 32.3294 103.168 32.0627C102.857 31.7529 102.488 31.5081 102.081 31.3426C101.609 31.1151 101.106 30.9585 100.589 30.8779C99.1773 30.605 97.5955 31.4995 95.8434 33.5614C95.4649 34.0076 95.1079 34.4846 94.7632 34.9524C94.4186 35.4201 94.04 36.0172 93.6246 36.7034C93.4892 36.9434 93.3415 37.2204 93.1876 37.5312C93.0337 37.842 92.8799 38.1652 92.7506 38.5098C92.6737 38.7099 92.5937 38.9376 92.5137 39.1776H92.5075C91.7681 39.9493 90.9763 40.669 90.1379 41.3318C89.3953 41.9576 88.6197 42.5431 87.8145 43.0859C87.0538 43.6216 86.2261 44.0551 85.3525 44.3754C84.6656 44.6344 83.922 44.7055 83.1984 44.5816C83.0967 43.5122 83.2108 42.4332 83.5338 41.4088C83.86 40.3624 84.1493 39.4792 84.4355 38.753C84.7217 38.0267 85.051 37.3127 85.3587 36.5988C85.6664 35.8848 85.9957 35.1585 86.3404 34.4446C88.222 33.106 89.9968 31.6234 91.6489 30.0101C93.1934 28.5079 94.6572 26.9249 96.0342 25.2678C97.339 23.686 98.4992 22.1391 99.5147 20.6271C99.844 20.1316 100.13 19.6823 100.438 19.2207C101.178 19.3985 101.905 19.6278 102.614 19.9069C103.487 20.2241 104.292 20.7046 104.986 21.3226C105.413 21.7026 105.725 22.1938 105.888 22.7412C105.923 22.7948 105.942 22.8573 105.942 22.9213C105.942 22.9852 105.923 23.0478 105.888 23.1013C106.014 23.1562 106.153 23.1758 106.29 23.1579C106.426 23.14 106.556 23.0854 106.664 22.9997C106.797 22.9335 106.905 22.8254 106.971 22.692C107.18 22.3128 107.353 21.9151 107.488 21.5041C107.597 21.0844 107.639 20.6505 107.614 20.2178C107.578 19.6613 107.43 19.118 107.177 18.6206C107.008 18.2759 106.78 17.882 106.507 17.4327C106.159 16.9128 105.712 16.4664 105.193 16.1187C104.504 15.6584 103.761 15.2862 102.98 15.0108C103.288 14.4599 103.555 13.9553 103.777 13.5152C104.189 12.6904 104.448 12.155 104.549 11.9149C104.826 11.32 104.898 10.65 104.752 10.01C104.626 9.34434 104.401 8.70125 104.085 8.10203C103.983 7.9297 103.869 7.75736 103.749 7.58503C103.629 7.41269 103.518 7.24344 103.414 7.07111C103.285 6.91182 103.119 6.78608 102.931 6.70463C102.743 6.62318 102.538 6.58843 102.334 6.60334C101.921 6.63951 101.519 6.75333 101.149 6.93878C100.784 7.11944 100.437 7.33592 100.115 7.58503C99.8071 7.82507 99.6163 7.97894 99.5455 8.04972L99.4963 8.10203C97.6147 9.97766 95.88 11.9952 94.3078 14.1368C93.84 14.1584 93.3846 14.1768 92.8706 14.2107C90.5154 14.3666 87.7047 14.7185 84.4386 15.2662C84.0282 15.338 83.3666 15.4406 82.4536 15.574L79.4132 16.0386C78.295 16.211 77.1513 16.3915 75.9818 16.5803C74.8155 16.7711 73.7507 16.9311 72.7875 17.0696C74.1969 15.1083 75.6403 13.2864 77.1174 11.6041C78.524 9.98915 80.0407 8.4735 81.6566 7.06803C82.692 6.13995 83.7846 5.27761 84.9279 4.48608C85.8314 3.86697 86.7695 3.2998 87.7375 2.78735C88.4841 2.3908 89.261 2.05432 90.061 1.78105C90.6484 1.58298 91.2517 1.43575 91.8643 1.34099C93.0953 1.1707 94.1088 1.30918 94.9048 1.75643L95.1633 1.60256C94.2709 0.576757 92.9301 0.0433372 91.1411 0.00230517C89.3521 -0.0387269 87.3241 0.468019 85.0571 1.52254C82.788 2.57296 80.3825 4.17219 77.8406 6.32022C75.0434 8.74041 72.562 11.5031 70.4548 14.543C70.0753 15.0929 69.6978 15.6263 69.3223 16.1433C68.9407 16.6572 68.5807 17.1896 68.236 17.7374C67.5498 17.8082 66.7835 17.8943 65.9434 17.999C65.1145 18.0999 64.2788 18.1339 63.4445 18.1005C62.6613 18.0743 61.8868 17.9269 61.1488 17.6635C60.4416 17.4035 59.8364 16.9235 59.4223 16.2941C59.1246 15.8553 58.9787 15.3311 59.0069 14.8015C59.0403 14.2718 59.1631 13.7516 59.37 13.2628C59.569 12.7767 59.8286 12.3176 60.1425 11.8965C60.4097 11.5341 60.7017 11.1907 61.0164 10.8686L60.8103 10.8348C60.1325 11.3754 59.5337 12.0083 59.0315 12.7151C58.7198 13.1534 58.4683 13.6316 58.2837 14.1368C58.2529 14.0968 58.2345 14.0414 58.2037 14.0045C58.0039 13.743 57.7891 13.4934 57.5605 13.2567C57.4316 13.1267 57.2733 13.0296 57.0989 12.9736C56.9235 12.9212 56.7696 12.8782 56.6342 12.8443C56.5186 12.8042 56.3963 12.7875 56.2742 12.7951C55.8473 12.7242 55.4116 12.7242 54.9847 12.7951C53.9995 12.936 53.0312 13.1773 52.095 13.5152C51.165 13.8458 50.2528 14.2249 49.3623 14.6508C48.5037 15.06 47.719 15.4755 47.0173 15.8817C46.3157 16.2879 45.7371 16.6541 45.2909 16.9619L45.1894 17.0665C45.7927 16.2278 46.1001 15.2124 46.0633 14.1799C46.0546 14.0611 45.9993 13.9505 45.9095 13.8722C45.9125 13.8194 45.903 13.7667 45.8818 13.7183C45.8632 13.6692 45.8549 13.6168 45.8571 13.5644C45.6262 13.225 45.2756 12.9854 44.8755 12.8935C44.3734 12.8319 43.8639 12.8759 43.3798 13.0228C42.5147 13.2978 41.6976 13.7059 40.9579 14.2322C39.9321 14.8867 39.09 15.455 38.4314 15.9371C37.7728 16.4192 37.2404 16.8296 36.8342 17.1681C36.4239 17.5127 36.0977 17.8051 35.8556 18.0451L35.1847 18.716L33.9968 19.9039C33.5845 20.3162 33.1906 20.7255 32.812 21.1348L30.7256 21.6764C29.9839 21.8642 29.2884 22.0457 28.6329 22.215C27.7097 22.4243 26.5649 22.6889 25.2078 23.0151C17.822 24.7969 11.5472 25.1262 4.95849 29.5177C3.20437 30.6871 1.98572 31.758 1.32407 32.7151C-0.328491 35.0908 -0.682392 41.0241 1.70875 41.1687C2.2162 41.2048 2.7256 41.1346 3.20436 40.9625C3.59403 40.817 3.97341 40.6453 4.33992 40.4486C4.69897 40.2555 5.02852 40.012 5.31854 39.7254C4.75027 39.7571 4.18025 39.7231 3.61981 39.6239C3.21194 39.5516 2.81886 39.4123 2.45656 39.2115C2.29529 39.1327 2.16198 39.0064 2.07452 38.8496C1.98706 38.6928 1.94963 38.5131 1.96725 38.3344C2.05869 37.9137 2.20564 37.507 2.40424 37.125C2.79243 36.378 3.29848 35.6984 3.90293 35.1124C4.85482 34.1597 5.89909 33.3041 7.02034 32.5582C13.2182 28.2713 18.2005 27.3266 25.2078 25.6463C26.7034 25.2832 28.2072 24.8964 29.7193 24.4861C29.545 24.7225 29.3548 24.9466 29.1499 25.157C27.0163 27.6989 25.2375 29.9926 23.8137 32.0381C22.3899 34.0835 21.239 35.8971 20.3609 37.4789C19.6082 38.7879 18.9698 40.1593 18.4529 41.578C18.1148 42.485 17.8815 43.4277 17.7574 44.3877C17.7574 44.5262 17.742 44.7662 17.7051 45.1078C17.6721 45.4812 17.7065 45.8575 17.8066 46.2187C17.925 46.6413 18.127 47.0358 18.4006 47.3789C18.7586 47.8001 19.2345 48.1045 19.7669 48.2529C20.2132 48.496 20.6255 48.3575 20.9979 47.8436C21.1553 47.7105 21.2637 47.5285 21.3056 47.3266C21.8257 46.5019 22.2535 45.831 22.5951 45.3171C22.9367 44.8031 23.2106 44.3692 23.4475 44.0276C23.6845 43.686 23.8691 43.3906 24.0415 43.1506C24.2138 42.9105 24.3923 42.6582 24.5831 42.4028C24.7739 42.1473 24.9831 41.8365 25.2263 41.4795C25.4694 41.1226 25.7925 40.6456 26.2079 40.0639C26.2231 40.0764 26.2356 40.0919 26.2446 40.1093C26.2535 40.1268 26.2589 40.1459 26.2603 40.1655C26.2604 40.1854 26.2649 40.2051 26.2734 40.2232C26.2819 40.2412 26.2942 40.2573 26.3095 40.2701C26.643 41.5488 27.1006 42.7918 27.6759 43.9815C28.2411 45.1495 28.8698 46.2858 29.5592 47.3851C29.5888 47.4815 29.6417 47.5692 29.7131 47.6405L29.9193 47.8498C29.9819 48.013 30.0772 48.1617 30.1993 48.2868C30.3211 48.408 30.4342 48.5375 30.5379 48.6745C31.2947 49.4872 32.2488 50.0904 33.3075 50.4256C34.5189 50.8055 35.8248 50.751 37.0004 50.2717C37.0788 50.1999 37.1779 50.1546 37.2835 50.1424C37.3894 50.1333 37.4891 50.0889 37.5666 50.0163C39.0565 49.2862 40.2301 48.0393 40.8687 46.508C40.9071 46.4569 40.9247 46.3931 40.9179 46.3295C40.9187 46.2856 40.91 46.2419 40.8925 46.2016C40.875 46.1612 40.849 46.1251 40.8164 46.0956C40.7456 46.0249 40.6625 46.0772 40.5579 46.2495C40.2984 46.5237 39.9933 46.7507 39.6562 46.9204C39.2254 47.1604 38.8745 47.3666 38.6006 47.5359C38.5193 47.5832 38.431 47.6174 38.3391 47.6374C38.2062 47.7056 38.0695 47.7662 37.9298 47.819C37.8317 47.86 37.7279 47.8859 37.622 47.8959H37.5697C37.0272 48.0347 36.4565 48.0177 35.9233 47.8467C35.4083 47.6741 34.9279 47.4116 34.5046 47.0712C33.6828 46.4096 33.007 45.585 32.5197 44.6493L32.4643 44.597C31.3627 42.6617 30.5469 40.5772 30.0424 38.4083C30.9369 38.236 32.2089 37.9282 33.8584 37.4851C35.7409 36.959 37.5905 36.3219 39.3977 35.5771C41.6052 34.6729 43.7498 33.6222 45.8172 32.432C48.1205 31.1116 50.281 29.5564 52.2643 27.7912C52.7444 27.3789 53.2091 26.9511 53.6553 26.5018C54.0925 26.0627 54.5035 25.5982 54.8863 25.1108C55.2109 24.788 55.5122 24.4424 55.7879 24.0768C56.0464 23.7352 56.2957 23.4059 56.5357 23.0982C56.8311 22.7418 57.0986 22.3632 57.3359 21.9657C57.5615 21.5862 57.7585 21.2415 57.9267 20.9317L58.0313 20.8302C58.3052 20.2455 58.5237 19.7562 58.6745 19.3592C58.8253 18.9622 58.9392 18.676 59.0069 18.4698C59.4201 18.8905 59.8904 19.251 60.404 19.5407C60.7093 19.7107 61.0272 19.8568 61.355 19.9777C61.7411 20.1136 62.1402 20.2095 62.5459 20.2639C63.0919 20.3372 63.6416 20.3793 64.1923 20.3901C64.8293 20.4086 65.5925 20.4178 66.4881 20.4178C64.7657 23.0889 63.1839 25.8479 61.7489 28.6837C60.6841 30.8379 59.8132 32.7059 59.0654 34.4169C58.5237 34.5492 57.979 34.6785 57.342 34.82C56.4561 35.0144 55.5603 35.1603 54.6585 35.257C54.8684 35.0812 55.0668 34.8921 55.2525 34.6908C55.4474 34.474 55.612 34.2318 55.7418 33.9707C55.9318 33.6904 56.0057 33.3473 55.948 33.0136C55.9402 32.665 55.8094 32.3303 55.5787 32.0688C55.2679 31.7591 54.8987 31.5143 54.4923 31.3487C54.0206 31.1208 53.5176 30.9642 52.9998 30.8841C51.5904 30.6112 50.0086 31.5057 48.2545 33.5675C47.8749 34.0127 47.5149 34.4764 47.1743 34.9585C46.8337 35.4407 46.4552 36.0212 46.0387 36.7003C45.9002 36.9404 45.7525 37.2173 45.6017 37.5282C45.4509 37.839 45.294 38.1621 45.1647 38.5068C44.9883 38.954 44.8067 39.5039 44.62 40.1563C44.4312 40.8143 44.3015 41.4878 44.2323 42.1689C44.2015 42.4944 44.2015 42.822 44.2323 43.1475C44.2711 43.4348 44.3317 43.7188 44.4138 43.9969C44.4867 44.2554 44.622 44.4921 44.8078 44.6862C45.0329 44.9824 45.2934 45.25 45.5833 45.4832C46.0522 45.8741 46.5971 46.1633 47.1835 46.3326C47.2143 46.3326 47.2358 46.3326 47.2358 46.3603C47.2358 46.388 47.2512 46.3849 47.2851 46.3849C47.4845 46.3737 47.6829 46.349 47.879 46.3111C48.3456 46.1822 48.7891 45.9807 49.1931 45.7141C49.6377 45.4631 50.0682 45.1878 50.4825 44.8893C50.7336 44.715 50.974 44.5259 51.2026 44.3231C51.3677 44.2245 51.5241 44.1123 51.6704 43.9876C51.8058 43.8676 51.9443 43.7414 52.0797 43.5999C52.6935 43.0659 53.2319 42.451 53.6799 41.7719C54.0229 41.233 54.3312 40.6728 54.6031 40.0947L54.6062 40.1039ZM99.0501 34.6816C99.1599 34.5331 99.3006 34.4103 99.4624 34.3215C99.8529 33.8066 100.367 33.399 100.958 33.1367L101.5 32.9521C101.758 32.869 102.031 32.8438 102.3 32.8782C102.263 32.9459 102.171 33.2044 102.014 33.6506C101.773 34.2578 101.452 34.8301 101.06 35.3524C100.219 35.4205 99.3739 35.4205 98.5331 35.3524C98.7423 35.0847 98.9147 34.8631 99.0531 34.6908L99.0501 34.6816ZM94.5386 42.9659C94.6926 42.3712 94.8827 41.7864 95.1079 41.2149C95.3326 40.6456 95.5633 40.1224 95.8065 39.6392C96.0496 39.1561 96.2527 38.7622 96.4219 38.4545C96.5912 38.1467 96.7512 37.9221 96.8866 37.6789C97.022 37.4358 97.1605 37.2173 97.299 37.0112C97.8499 37.0112 98.6715 36.9588 99.7609 36.8573C99.806 36.946 99.8574 37.0314 99.9148 37.1127C99.9958 37.2448 100.065 37.3838 100.121 37.5282C100.391 38.2637 100.435 39.0627 100.25 39.8239C100.076 40.4845 99.7876 41.1094 99.3978 41.6703C99.0399 42.179 98.6155 42.6375 98.1361 43.0336C97.6714 43.4121 97.3175 43.6891 97.0805 43.8615C96.9389 43.9261 96.8036 43.9969 96.6651 44.0676C96.5533 44.1203 96.4497 44.1887 96.3573 44.2708C95.7077 44.5552 95.0046 44.6969 94.2955 44.6862C94.3062 44.105 94.3878 43.5273 94.5386 42.9659ZM41.7304 16.8511C41.7691 16.8478 41.8053 16.8303 41.8319 16.8019L42.0873 16.5403C42.2258 16.4049 42.3951 16.2325 42.6074 16.051C42.8155 15.8566 43.0365 15.6767 43.2691 15.5124C43.4834 15.3536 43.7063 15.2067 43.9369 15.0724C44.1074 14.9629 44.3038 14.9003 44.5062 14.8908H44.5554C44.2003 15.5696 43.6874 16.1532 43.0598 16.5926C42.2021 17.2261 41.2872 17.7783 40.3271 18.2421L41.7304 16.8511ZM25.9002 37.0112C25.0047 38.2144 24.2353 39.3131 23.5798 40.3101C22.9244 41.3072 22.3243 42.252 21.7765 43.1475C23.4247 39.9891 25.2484 36.9253 27.2389 33.9707C29.5777 30.4296 32.6715 26.5449 36.5203 22.3166C37.2774 22.0088 38.0077 21.7011 38.7114 21.3933C39.4192 21.0856 40.1147 20.7779 40.801 20.4701C35.1614 25.342 30.1554 30.9022 25.9002 37.0204V37.0112ZM56.425 16.491C56.1174 17.0216 55.7814 17.5353 55.4186 18.0297C55.0217 18.5806 54.637 19.1499 54.2585 19.7315C54.0523 20.0054 53.8122 20.3162 53.5383 20.6547C53.2645 20.9933 52.969 21.3595 52.6582 21.7349C50.7629 23.9398 48.5908 25.8906 46.1957 27.5389C43.8956 29.1453 41.4932 30.5999 39.0038 31.8934C36.9747 32.9554 34.8915 33.9107 32.7628 34.7554C30.941 35.4591 29.7203 35.9156 29.1007 36.1249C29.1638 36.0639 29.2168 35.9933 29.2577 35.9156C29.4977 35.6417 29.947 35.1093 30.5963 34.3184C31.2457 33.5275 32.0765 32.592 33.0736 31.5057C34.0707 30.4193 35.2124 29.2499 36.5019 27.9759C37.7913 26.7019 39.1823 25.4401 40.6779 24.1845C42.1735 22.929 43.7553 21.7226 45.4202 20.6024C47.0508 19.4887 48.7673 18.506 50.5533 17.6635H50.6025C50.7263 17.5644 50.8656 17.4864 51.0149 17.4327C51.2211 17.3435 51.4272 17.2512 51.6304 17.1465C51.8335 17.0419 52.212 16.888 52.6582 16.6849C53.1044 16.4818 53.5814 16.2695 54.08 16.0694L55.5202 15.4786C55.8815 15.3247 56.2526 15.1952 56.6311 15.0908L57.4036 14.9369C57.0835 15.4263 56.7542 15.9402 56.4127 16.491H56.425ZM94.8371 24.0953C93.5372 25.8292 92.1431 27.4904 90.6611 29.0715C89.3029 30.5076 88.1427 31.676 87.1805 32.5766C89.1451 28.5054 91.3493 24.5543 93.7815 20.744C94.2955 19.9377 94.8217 19.1591 95.351 18.3898C96.4466 18.4801 97.4354 18.6032 98.3176 18.7591C97.2527 20.6009 96.0866 22.3824 94.8248 24.0953H94.8371ZM101.432 10.7147C101.566 10.5722 101.714 10.4423 101.872 10.327C101.941 10.2815 102.021 10.256 102.103 10.2531C102.134 10.2641 102.161 10.2846 102.179 10.3116C102.198 10.3387 102.208 10.371 102.207 10.4039C101.74 11.7888 101.21 13.1182 100.632 14.4045C100.072 14.3122 99.4932 14.2261 98.8285 14.1707C98.73 14.1707 98.6192 14.1707 98.5207 14.1522C99.4655 12.9551 100.432 11.7949 101.432 10.7147ZM70.7041 20.0485C75.2402 19.3243 79.2531 18.8258 82.7429 18.5529C86.0357 18.2913 88.8977 18.1836 91.3935 18.2144C89.6292 20.8292 87.9981 23.5316 86.5066 26.311C84.5637 29.9731 83.0424 33.11 81.9428 35.7217C81.6658 36.3772 81.3673 37.2266 81.0411 38.276C80.9549 38.5529 80.9026 38.8084 80.8349 39.073H80.758C80.0177 39.9206 79.2252 40.7213 78.3853 41.4703C77.5726 42.2206 76.6727 42.8705 75.7049 43.406C75.8808 42.2542 76.14 41.1167 76.4804 40.0024C76.7828 38.918 77.1434 37.8506 77.5605 36.805C78.0172 35.6517 78.5873 34.5466 79.2624 33.506C79.3639 33.326 79.4196 33.1237 79.4244 32.917C79.4292 32.7104 79.3831 32.5058 79.2901 32.3212C79.1579 32.078 78.9728 31.8677 78.7484 31.7057C78.573 31.6011 78.4038 31.4903 78.2314 31.3703C78.0591 31.2502 77.8898 31.1364 77.7175 31.0348H77.6652L77.5605 30.9825C77.5126 30.9487 77.4566 30.9283 77.3981 30.9235C77.3397 30.9186 77.281 30.9294 77.2282 30.9548C77.1618 30.9903 77.1007 31.0348 77.0466 31.0872C76.551 31.6507 76.1023 32.2539 75.7049 32.8905C75.5326 33.1982 75.3602 33.506 75.1909 33.7676C75.1842 33.8473 75.1467 33.9212 75.0863 33.9738V34.023C74.9565 34.1492 74.8665 34.3108 74.8278 34.4877C74.6227 34.8323 74.357 35.296 74.0308 35.8787C73.7015 36.4665 73.3322 37.1096 72.9198 37.8143C72.5074 38.5191 72.0766 39.2146 71.6304 39.9008C71.1842 40.5871 70.7656 41.2087 70.3687 41.7473C70.0579 42.1946 69.7132 42.6175 69.3377 43.0121C69.0454 43.3044 68.83 43.3998 68.6946 43.2952C68.6583 43.2579 68.6303 43.2135 68.6123 43.1647C68.5942 43.116 68.5866 43.064 68.5899 43.0121C68.5859 42.915 68.6037 42.8182 68.6422 42.729V42.6274C68.7438 42.212 68.8823 41.6549 69.0546 40.9502C69.2269 40.2455 69.4485 39.4823 69.7224 38.6545C69.9963 37.8267 70.3379 36.9711 70.7041 36.0756C71.0798 35.1816 71.5286 34.3201 72.0459 33.4998C72.2859 33.0177 72.3023 32.6228 72.0951 32.315C71.9573 32.0832 71.7827 31.8753 71.5781 31.6996C71.2062 31.4955 70.8457 31.2715 70.4979 31.0287H70.4456L69.7224 30.5609H69.5162C69.4485 30.6327 69.4147 30.685 69.4147 30.7179C69.3965 30.9889 69.3448 31.2566 69.2608 31.5149C69.0922 32.0061 68.8482 32.4681 68.5376 32.8844L68.3591 33.2413C68.3129 33.3384 68.2505 33.4268 68.1745 33.5029C68.1183 33.5855 68.0679 33.6719 68.0237 33.7614C67.2777 35.0561 66.6385 36.4096 66.1126 37.8082C65.8201 38.5818 65.5735 39.3721 65.374 40.1747C65.1402 40.4271 64.9217 40.6425 64.6724 40.9287C64.1272 41.5425 63.5499 42.127 62.9429 42.6797C62.3865 43.1963 61.772 43.6466 61.1118 44.0215C60.5711 44.3482 59.9332 44.4755 59.3085 44.3815C59.278 43.9129 59.3216 43.4425 59.4377 42.9875C59.5629 42.4549 59.718 41.9299 59.9024 41.4149C60.0891 40.8815 60.2861 40.3686 60.4933 39.8762C60.6995 39.3777 60.8872 38.953 61.0595 38.5591C62.3684 35.3278 63.8384 32.1478 65.4694 29.0191C67.1005 25.8905 68.8423 22.9002 70.6949 20.0485H70.7041ZM52.6736 39.8239C52.4995 40.4845 52.211 41.1094 51.8212 41.6703C51.4641 42.1797 51.0397 42.6383 50.5594 43.0336C50.0947 43.4121 49.7408 43.6891 49.5039 43.8615C49.3654 43.9261 49.2269 43.9969 49.0915 44.0676C48.9785 44.118 48.8745 44.1866 48.7838 44.2708C48.132 44.5554 47.4269 44.6971 46.7158 44.6862C46.7213 44.1022 46.7998 43.5212 46.9496 42.9567C47.1022 42.3616 47.2924 41.7767 47.519 41.2057C47.7405 40.6363 47.9744 40.1132 48.2144 39.63C48.4545 39.1469 48.6607 38.753 48.8299 38.4452C48.9992 38.1375 49.1592 37.9128 49.2946 37.6697C49.43 37.4266 49.5685 37.2081 49.7101 37.0019C50.2578 37.0019 51.0785 36.9506 52.172 36.8481C52.2182 36.9361 52.2696 37.0214 52.3259 37.1035C52.4068 37.2355 52.4758 37.3746 52.532 37.5189C52.8075 38.2561 52.8568 39.0586 52.6736 39.8239ZM50.9626 35.3617C51.1657 35.0847 51.3411 34.8631 51.4765 34.6908C51.5871 34.5431 51.7276 34.4204 51.8889 34.3307C52.28 33.8165 52.7943 33.409 53.3845 33.1459L53.9261 32.9613C54.1842 32.8782 54.4573 32.853 54.7262 32.8874C54.6893 32.9551 54.597 33.2136 54.44 33.6599C54.199 34.267 53.8782 34.8393 53.486 35.3617C52.6463 35.4297 51.8023 35.4297 50.9626 35.3617Z" fill="#D3B16A"/>
<path d="M179.906 22.7996C179.746 21.9779 179.467 21.1838 179.078 20.4423C178.952 20.23 178.813 20.0146 178.662 19.8022C178.512 19.5899 178.376 19.3775 178.25 19.1652C178.09 18.9686 177.884 18.8137 177.651 18.714C177.418 18.6143 177.164 18.5727 176.911 18.5928C176.4 18.6359 175.902 18.7769 175.443 19.0083C174.994 19.2315 174.568 19.4974 174.169 19.8022C173.788 20.11 173.554 20.2915 173.471 20.3777L173.403 20.4423C170.844 22.9833 168.5 25.7327 166.396 28.6621C163.071 33.2226 160.057 38.0024 157.376 42.9689C154.98 47.4968 153.101 51.3743 151.738 54.6015C151.398 55.4078 151.026 56.4592 150.624 57.7558C150.517 58.0974 150.452 58.4144 150.366 58.7437H150.27C149.355 59.79 148.376 60.7796 147.341 61.7072C146.337 62.6349 145.224 63.4369 144.026 64.0953C144.245 62.6723 144.563 61.2665 144.98 59.8885C145.358 58.5503 145.805 57.2324 146.319 55.9402C146.885 54.5149 147.589 53.1483 148.421 51.8595C148.679 51.2656 148.689 50.7763 148.455 50.3947C148.293 50.0916 148.065 49.8295 147.787 49.6284C147.582 49.5012 147.369 49.3627 147.15 49.213C146.938 49.0652 146.725 48.9268 146.513 48.8037H146.448L146.319 48.736C146.258 48.695 146.188 48.6706 146.115 48.6652C146.042 48.6598 145.969 48.6736 145.904 48.7052C145.825 48.7514 145.751 48.805 145.682 48.8652C145.072 49.564 144.518 50.3101 144.026 51.0963C143.814 51.4779 143.602 51.8411 143.389 52.1765C143.386 52.2258 143.374 52.274 143.352 52.3183C143.33 52.3627 143.3 52.4023 143.263 52.435V52.4996C143.105 52.655 142.998 52.8545 142.955 53.072C142.703 53.4936 142.374 54.0691 141.971 54.7923C141.567 55.5155 141.109 56.3125 140.601 57.1834C140.093 58.0543 139.561 58.9129 139.007 59.7623C138.453 60.6117 137.933 61.3779 137.444 62.058C137.062 62.6116 136.636 63.1334 136.17 63.6183C135.81 63.9814 135.554 64.0953 135.373 63.9691C135.329 63.922 135.296 63.8667 135.274 63.8064C135.252 63.7462 135.243 63.6822 135.246 63.6183C135.242 63.498 135.264 63.3783 135.311 63.2675V63.1505C135.437 62.6427 135.619 61.9503 135.819 61.0794C136.019 60.2085 136.308 59.2638 136.65 58.2451C136.991 57.2265 137.391 56.1648 137.859 55.06C138.326 53.9552 138.88 52.8891 139.515 51.8718C139.814 51.2789 139.837 50.7906 139.583 50.407C139.409 50.1215 139.194 49.8633 138.946 49.6407C138.485 49.3901 138.038 49.1148 137.607 48.816H137.542L136.65 48.2405H136.394C136.308 48.3267 136.265 48.3882 136.265 48.4313C136.244 48.7673 136.18 49.0993 136.074 49.4191C135.866 50.0249 135.565 50.5948 135.182 51.1086L134.96 51.5549C134.903 51.6687 134.829 51.7726 134.739 51.8626C134.668 51.9611 134.603 52.0639 134.545 52.1703C133.625 53.7727 132.836 55.4472 132.188 57.1773C131.987 57.6912 131.849 58.2574 131.68 58.8021C130.956 59.6084 130.116 60.4998 129.162 61.4764C128.254 62.4142 127.262 63.2671 126.199 64.0245C126.076 64.1107 125.956 64.1876 125.851 64.2491L125.497 64.4707V63.5167C125.457 63.209 125.414 62.8797 125.371 62.495C125.32 62.0644 125.236 61.6385 125.119 61.221C125.043 60.8645 124.914 60.5212 124.737 60.2024C124.401 59.4054 123.901 58.6881 123.269 58.0974C123.862 57.4204 124.509 56.7516 125.211 56.091C125.941 55.4103 126.718 54.783 127.538 54.2137C127.624 54.1276 127.731 54.0322 127.845 53.9245C127.963 53.8221 128.067 53.7041 128.153 53.5736C128.153 53.4875 128.153 53.4352 128.184 53.4167C128.195 53.4033 128.204 53.3876 128.209 53.3706C128.215 53.3537 128.217 53.3359 128.215 53.3182C128.301 52.9095 128.28 52.4853 128.153 52.0872C128.039 51.7515 127.866 51.4389 127.642 51.164C127.386 50.864 127.085 50.6056 126.75 50.3978C126.128 50.334 125.512 50.2312 124.903 50.09L123.626 49.7823C123.299 49.6768 122.981 49.5482 122.672 49.3976C122.993 49.0469 123.261 48.6508 123.466 48.222C123.75 47.6763 123.997 47.1118 124.205 46.5325C124.41 45.9601 124.602 45.397 124.78 44.843C124.917 44.4063 125.019 43.9598 125.088 43.5074C125.128 43.0397 124.971 42.772 124.608 42.7073C124.286 42.6711 123.96 42.6983 123.648 42.7873C123.7 42.6255 123.744 42.4612 123.78 42.295C123.893 41.4396 123.772 40.5695 123.429 39.7776C123.118 39.0297 122.638 38.3641 122.026 37.8327C122.879 36.8582 123.75 35.8806 124.639 34.9C125.527 33.9193 126.483 32.9212 127.507 31.9056C127.891 31.481 128.07 31.1209 128.048 30.8224C128.056 30.62 128.002 30.42 127.891 30.25L126.353 28.1481H123.675C120.83 29.7648 117.835 31.6328 114.689 33.7521C112.018 35.5842 108.973 37.7927 105.553 40.3777C102.133 42.9628 98.6172 45.916 95.0064 49.2376C93.3076 49.3176 91.7135 49.373 90.2272 49.3945C88.7408 49.4161 87.6791 49.4468 87.039 49.4899C81.2945 49.6151 76.5255 50.0613 72.7321 50.8286C68.9387 51.5959 65.848 52.4873 63.4599 53.5029C58.3268 55.7032 49.7685 65.8863 54.1538 67.2065C54.6894 67.3713 55.2548 67.4155 55.8095 67.3358C56.2909 67.259 56.7624 67.13 57.2159 66.9511C57.6805 66.7822 58.1277 66.5688 58.5514 66.3141C58.0067 66.1628 57.4739 65.9715 56.9574 65.7417C56.5964 65.5448 56.2816 65.273 56.0341 64.9446C55.8002 64.6369 55.791 64.2122 56.0003 63.7137C56.2701 63.2154 56.6032 62.7541 56.9912 62.3412C57.7217 61.5591 58.5491 60.8735 59.4531 60.3008C60.8181 59.4128 62.2456 58.625 63.7246 57.9436C65.8071 56.9906 67.9696 56.2234 70.1871 55.6509C73.188 54.8629 76.2314 54.2464 79.3024 53.8044C83.3252 53.2237 87.3753 52.8508 91.4366 52.6873C90.5872 53.5347 89.7378 54.4045 88.8885 55.297C88.0391 56.1894 87.1867 57.125 86.3404 58.1005V58.1651L86.2111 58.2944C86.0419 58.5067 85.8819 58.7006 85.7341 58.8668C85.5864 59.033 85.4264 59.2053 85.2571 59.3776C84.8294 59.8854 84.297 60.4732 83.6631 61.1287C83.0291 61.7841 82.3552 62.4673 81.6535 63.169C80.9519 63.8706 80.2625 64.5507 79.5824 65.2062C78.9023 65.8617 78.3084 66.4372 77.7975 66.8988C76.862 67.7481 75.8854 68.5872 74.8678 69.4161C73.917 70.1975 72.9043 70.9004 71.8397 71.518C70.9506 72.0482 69.9838 72.4355 68.9746 72.6658C68.1616 72.8708 67.3004 72.7446 66.5804 72.315C66.2648 72.1599 65.9833 71.9433 65.7526 71.678C65.5092 71.4177 65.3153 71.1153 65.1802 70.7855C64.9951 70.319 64.9081 69.8193 64.9247 69.3176C64.566 70.2088 64.3932 71.1638 64.417 72.1242C64.4695 72.9268 64.7201 73.704 65.1463 74.3861C65.5956 75.1308 66.4758 75.6909 67.7929 76.0756C69.1531 76.5434 70.7041 76.5639 72.4459 76.1371C74.3122 75.6537 76.0656 74.8089 77.6067 73.6506C79.0067 72.6621 80.3185 71.5542 81.5273 70.3393C83.0885 68.7756 84.5676 67.1322 85.9588 65.4155C86.196 65.0947 86.4497 64.7866 86.7189 64.4923C86.9909 64.1986 87.2467 63.8904 87.4852 63.569C89.0157 61.7021 90.3328 60.1418 91.4366 58.8883C92.5403 57.6348 93.3056 56.7741 93.7323 56.3064C94.3232 55.7124 94.9325 55.0754 95.548 54.4261L97.4898 52.3519C98.8931 52.2719 100.484 52.1611 102.272 52.0442C104.06 51.9272 105.605 51.7703 106.922 51.601C105.896 53.2136 105.005 54.742 104.248 56.1863C103.491 57.6307 102.875 58.9273 102.401 60.0762C102.004 60.9999 101.695 61.9592 101.478 62.9412C101.33 63.7106 101.38 64.2399 101.635 64.5353C101.969 64.9376 102.239 65.3892 102.435 65.874C102.633 66.3583 102.867 66.8274 103.134 67.2773C103.303 67.6019 103.587 67.852 103.931 67.979C104.239 68.0651 104.611 67.8282 105.079 67.2773C105.928 66.2987 106.629 65.4699 107.181 64.7908C107.734 64.1107 108.202 63.5075 108.584 62.9751C108.965 62.4427 109.295 61.9534 109.572 61.5072C109.849 61.0609 110.113 60.584 110.366 60.0762L110.304 60.0116C110.132 60.227 109.858 60.5409 109.476 60.9686C109.095 61.3964 108.701 61.8272 108.295 62.2735C107.888 62.7197 107.501 63.1321 107.116 63.5044C106.897 63.7563 106.64 63.9713 106.353 64.1414C106.672 62.8846 107.076 61.6508 107.562 60.4485C108.03 59.2607 108.668 57.8245 109.476 56.1402C110.438 54.185 111.501 52.2816 112.661 50.4378C114.022 50.0972 115.286 49.7248 116.456 49.3207C117.518 48.9673 118.534 48.4868 119.481 47.8897C119.943 47.6026 120.388 47.2893 120.813 46.9511C120.953 47.4853 121.126 48.0105 121.33 48.5236C121.329 48.5408 121.33 48.5581 121.336 48.5746C121.341 48.591 121.35 48.6062 121.361 48.619C121.389 48.6687 121.399 48.7259 121.392 48.7821C121.137 49.1606 120.65 49.853 119.927 50.8532C119.204 51.8534 118.388 52.9428 117.505 54.1306C116.622 55.3185 115.723 56.5002 114.831 57.6697C113.939 58.8391 113.194 59.7623 112.597 60.4393H113.742C114.677 59.4135 115.581 58.3877 116.453 57.3619C117.321 56.3248 118.118 55.3339 118.841 54.3984C119.564 53.4628 120.198 52.6258 120.752 51.8811C121.196 51.3037 121.601 50.6971 121.964 50.0654C122.22 50.2377 122.494 50.407 122.792 50.5763C123.102 50.7252 123.422 50.8527 123.749 50.9578C124.165 51.0903 124.59 51.1932 125.02 51.2656C124.216 51.9447 123.293 52.7304 122.251 53.6229C121.184 54.5382 120.173 55.5176 119.226 56.5556C119.102 56.7678 118.999 56.9914 118.918 57.2234C118.859 57.4216 118.846 57.6305 118.879 57.8345C118.912 58.0385 118.99 58.2325 119.109 58.4021C119.911 59.6072 120.394 60.9966 120.512 62.4396V63.1074C120.514 63.3325 120.493 63.5573 120.45 63.7783C120.449 64.1217 120.407 64.4637 120.324 64.7969L120.066 65.8186C120.057 65.8176 120.049 65.8185 120.041 65.8213C120.033 65.824 120.026 65.8285 120.02 65.8344C120.014 65.8404 120.009 65.8476 120.007 65.8555C120.004 65.8634 120.003 65.8718 120.004 65.8802C119.666 66.7726 119.312 67.6527 118.952 68.5267C118.592 69.4007 118.241 70.1947 117.899 70.9148C115.351 71.5959 113.323 72.2012 111.815 72.7305C110.304 73.2629 109.353 73.6352 108.913 73.8476C105.311 75.3323 101.886 77.2151 98.7023 79.4607C96.0652 81.3283 93.6016 83.4294 91.3412 85.7386C89.5565 87.5462 87.9755 89.5441 86.6266 91.6965C85.5003 93.5676 84.7884 95.1186 84.4909 96.3495C83.939 98.3909 83.8015 99.9737 84.0785 101.098C84.2635 102.048 84.6871 102.935 85.3095 103.677C85.9525 104.36 86.8046 104.809 87.7314 104.954C90.429 105.09 93.1243 104.644 95.6341 103.646C98.1941 102.617 100.597 101.233 102.771 99.5346C105.084 97.7351 107.2 95.6946 109.082 93.4475C111.027 91.1452 112.835 88.7315 114.499 86.2187C116.158 83.7096 117.666 81.1923 119.022 78.6668C120.379 76.1412 121.547 73.7727 122.528 71.5611H122.592C125.028 70.9985 127.494 70.5721 129.978 70.2839C130.17 70.2855 130.362 70.2752 130.553 70.2532C130.72 70.2316 130.91 70.2008 131.126 70.1578H131.698C131.734 70.16 131.769 70.149 131.797 70.127C131.843 70.0978 131.899 70.0858 131.954 70.0931H132.209C132.423 70.1029 132.638 70.0811 132.846 70.0285H133.228C133.915 69.9495 134.607 69.9074 135.299 69.9023C135.914 69.9023 136.456 69.8808 136.924 69.8377H138.262C141.875 69.9239 144.828 70.3701 147.122 71.1764C149.416 71.9827 150.946 72.9387 151.714 74.0445C152 74.4457 152.184 74.9108 152.25 75.3994C152.316 75.8879 152.262 76.3852 152.092 76.848C151.721 77.8849 151.183 78.8538 150.498 79.7162C149.791 80.6352 148.979 81.4686 148.079 82.1996C147.184 82.9228 146.485 83.4767 145.974 83.8583V83.923C145.974 83.963 146.017 83.9845 146.1 83.9845C146.525 83.7722 147.11 83.4583 147.855 83.0305C148.662 82.562 149.429 82.0289 150.15 81.4364C150.966 80.7688 151.722 80.0327 152.412 79.2361C153.133 78.4136 153.713 77.4778 154.129 76.4664C154.6 75.3186 154.745 74.3615 154.545 73.5983C154.379 72.8764 154.015 72.2148 153.495 71.6872C153.452 71.6872 153.431 71.6872 153.431 71.6534C153.431 71.6195 153.409 71.6226 153.366 71.6226L153.305 71.5611L153.175 71.4318C152.163 70.6246 151.017 69.9998 149.79 69.5854C148.413 69.1035 146.993 68.7521 145.55 68.536C143.989 68.2973 142.414 68.1687 140.835 68.1513C139.194 68.1287 137.589 68.1605 136.022 68.2467C133.985 68.3329 132.042 68.4601 130.193 68.6283C128.345 68.7965 126.612 69.0304 124.996 69.3299C124.726 69.4127 124.449 69.4663 124.168 69.49C123.908 69.5124 123.652 69.5662 123.405 69.65C123.617 69.1391 123.817 68.6406 124.02 68.1513C124.223 67.662 124.414 67.185 124.636 66.7203H124.82C124.819 66.7116 124.82 66.7027 124.823 66.6944C124.826 66.6862 124.831 66.6786 124.837 66.6724C124.843 66.6662 124.851 66.6615 124.859 66.6586C124.867 66.6557 124.876 66.6547 124.885 66.6557C125.859 65.8884 127.081 64.8369 128.55 63.5013C129.437 62.6756 130.278 61.8024 131.07 60.8855C130.864 61.8088 130.68 62.732 130.557 63.726V64.1691C130.557 64.5076 130.618 64.72 130.747 64.8062C130.877 64.8923 131.12 65.2739 131.606 65.8279C132 66.2964 132.462 66.704 132.975 67.0373C133.082 67.1513 133.214 67.2388 133.36 67.2927L133.615 67.4189C133.854 67.4224 134.091 67.3795 134.314 67.2927C134.825 67.0875 135.543 66.4721 136.468 65.4463C137.393 64.4205 138.604 62.5935 140.1 59.9654C139.777 61.2017 139.544 62.4594 139.401 63.7291V64.1722C139.401 64.5107 139.463 64.7231 139.592 64.8092C139.857 65.0921 140.158 65.3393 140.487 65.5447C140.995 65.9048 141.46 66.2341 141.888 66.5326C142.051 66.5943 142.222 66.6367 142.395 66.6588C142.715 66.6833 143.032 66.5926 143.291 66.4033L144.786 65.2216C145.402 64.7354 146.081 64.1732 146.824 63.5352C147.566 62.8971 148.332 62.1791 149.119 61.381C149.427 61.0733 149.701 60.7194 149.993 60.4024C149.941 60.7286 149.876 61.0671 149.852 61.381V61.9195C149.852 62.3475 149.895 62.7744 149.981 63.1936C150.063 63.5362 150.159 63.887 150.267 64.2461C150.367 64.5945 150.554 64.912 150.809 65.1693V65.2339C150.892 65.3201 151.012 65.4463 151.16 65.6155C151.349 65.8239 151.555 66.0164 151.775 66.191C152.401 66.8708 153.16 67.4136 154.006 67.7851H154.129C154.318 67.8337 154.513 67.8554 154.708 67.8497C155.082 67.8181 155.448 67.7201 155.788 67.5604C156.403 67.2938 157 66.9854 157.573 66.6372C158.493 66.0691 159.367 65.429 160.186 64.7231C160.993 64.0477 161.749 63.3133 162.448 62.5258L164.91 59.8177C165.039 59.6484 165.162 59.4884 165.291 59.3407C165.411 59.1959 165.539 59.0572 165.673 58.9252C165.672 58.9165 165.673 58.9077 165.676 58.8994C165.679 58.8911 165.683 58.8836 165.689 58.8774C165.696 58.8712 165.703 58.8664 165.712 58.8635C165.72 58.8606 165.729 58.8596 165.737 58.8606H164.78C163.867 59.8196 162.888 60.7142 161.851 61.538C160.933 62.3101 159.975 63.0342 158.982 63.7075C158.039 64.3688 157.014 64.9056 155.933 65.3047C154.868 65.6432 153.979 65.7294 153.255 65.5601C153.129 64.2388 153.269 62.9055 153.668 61.6395C154.078 60.3429 154.45 59.2494 154.785 58.359C155.166 57.4665 155.549 56.5741 155.933 55.6816C156.316 54.7892 156.716 53.8937 157.133 52.9951C159.46 51.34 161.656 49.5076 163.7 47.5142C165.613 45.6612 167.427 43.7084 169.135 41.6641C170.666 39.8256 172.104 37.9111 173.443 35.9278C174.699 34.0608 175.761 32.3826 176.631 30.8932C177.502 29.4037 178.192 28.1543 178.702 27.1326C179.213 26.1109 179.53 25.4554 179.656 25.1569C179.998 24.4206 180.088 23.5921 179.912 22.7996H179.906ZM110.575 46.1879C110.267 46.5695 110.003 46.9541 109.747 47.3357L108.981 48.4805C108.004 48.5667 106.846 48.6518 105.506 48.736C104.168 48.8221 102.949 48.9083 101.841 48.9945H101.429C101.268 48.995 101.108 49.0157 100.952 49.056C102.651 47.4435 104.446 45.797 106.337 44.1168C108.229 42.4365 110.163 40.7696 112.138 39.116C114.112 37.4542 116.108 35.8283 118.127 34.2383C120.146 32.6483 122.132 31.1507 124.085 29.7453C123.449 30.3813 122.61 31.2738 121.567 32.4227C120.527 33.5674 119.392 34.8846 118.158 36.3402C116.924 37.7958 115.65 39.3776 114.336 41.0578C113.021 42.7381 111.744 44.4461 110.556 46.1879H110.575ZM121.881 43.6059C121.863 43.6059 121.841 43.6244 121.823 43.6398C121.408 43.906 121.05 44.2523 120.77 44.6584C120.77 44.6738 120.77 44.6953 120.77 44.7138C120.22 45.1287 119.627 45.4836 119.001 45.7724C117.624 46.3962 116.194 46.8977 114.729 47.2711C115.704 45.8719 116.777 44.406 117.948 42.8735C119.12 41.341 120.405 39.7694 121.804 38.1589C122.077 38.4866 122.302 38.8513 122.472 39.2422C122.665 39.6757 122.784 40.1386 122.823 40.6116C122.861 41.1381 122.807 41.6672 122.663 42.1749C122.493 42.7 122.221 43.1863 121.863 43.6059H121.881ZM110.159 85.4586C108.258 88.4243 106.127 91.2365 103.786 93.8691C102.101 95.7836 100.199 97.4949 98.1176 98.9684C96.619 100.012 95.0164 100.898 93.3353 101.612C92.1547 102.12 90.9135 102.474 89.6424 102.664C88.6023 102.794 87.8268 102.877 87.3159 102.92C86.6799 103.002 86.3722 102.545 86.3927 101.55C86.4132 100.555 86.7456 99.2443 87.3898 97.6174C88.2081 95.6988 89.1893 93.8538 90.3226 92.1027C91.7256 89.9002 93.3141 87.8215 95.071 85.8894C97.2542 83.512 99.7142 81.4044 102.398 79.6115C104.65 78.1011 107.016 76.7696 109.476 75.6294C111.863 74.5254 114.333 73.6087 116.862 72.8874H116.988C115.001 77.2278 112.713 81.4243 110.141 85.4463L110.159 85.4586ZM172.692 32.4873C171.181 35.1731 169.5 37.7593 167.658 40.23C166.06 42.3731 164.348 44.4277 162.528 46.3848C160.851 48.1718 159.415 49.6161 158.219 50.7178C160.649 45.6862 163.373 40.8021 166.377 36.0909C169.157 31.6941 172.313 27.5466 175.81 23.6951C175.975 23.5203 176.155 23.3606 176.348 23.2181C176.435 23.1637 176.535 23.1319 176.638 23.1258C176.676 23.1409 176.708 23.1673 176.731 23.2014C176.753 23.2355 176.765 23.2757 176.764 23.3166C175.701 26.4958 174.338 29.5666 172.692 32.4873Z" fill="#D3B16A"/>
<g clip-path="url(#clip0_1405_7837)">
<path d="M58.0916 28.9383C58.6431 28.8814 59.1875 28.7782 59.7176 28.6301C60.1344 28.5164 60.5342 28.3578 60.9084 28.1576C60.9886 27.9444 61.0158 27.718 60.9881 27.4943C60.9604 27.2707 60.8785 27.0552 60.7481 26.863C60.5131 26.4556 60.1107 26.1461 59.6259 26C59.3819 26.2447 59.0958 26.4528 58.7786 26.6165C58.3964 26.8258 57.9985 27.0111 57.5878 27.1712L56.3969 27.5617C56.1006 27.6477 55.7922 27.6961 55.4809 27.7055C55.3721 27.8651 55.2728 28.0297 55.1832 28.1986C55.0953 28.3467 55.0335 28.5062 55 28.6713C55.4532 28.8345 55.9325 28.9315 56.4198 28.9589C56.9756 29.0102 57.5358 29.0102 58.0916 28.9589" fill="#D3B16A"/>
</g>
<defs>
<clipPath id="clip0_1405_7837">
<rect width="6" height="3" fill="white" transform="translate(55 26)"/>
</clipPath>
</defs>
</svg>
